<?xml version="1.0" encoding="UTF-8"?>
<!DOCTYPE svg PUBLIC "-//W3C//DTD SVG 1.1//EN" "http://www.w3.org/Graphics/SVG/1.1/DTD/svg11.dtd">
<svg xmlns="http://www.w3.org/2000/svg" version="1.1" width="556px" height="449px" style="shape-rendering:geometricPrecision; text-rendering:geometricPrecision; image-rendering:optimizeQuality; fill-rule:evenodd; clip-rule:evenodd" xmlns:xlink="http://www.w3.org/1999/xlink">
<g><path style="opacity:0.388" fill="#b9bcbb" d="M 350.5,81.5 C 349.167,81.5 348.5,80.8333 348.5,79.5C 349.766,78.9101 351.099,78.4101 352.5,78C 384.5,77.3333 416.5,77.3333 448.5,78C 448.833,78.3333 449.167,78.6667 449.5,79C 431.155,79.2335 412.822,79.7335 394.5,80.5C 379.668,79.162 365.001,79.4953 350.5,81.5 Z"/></g>
<g><path style="opacity:0.765" fill="#5c5c5e" d="M 486.5,72.5 C 488.936,72.317 491.103,72.9837 493,74.5C 493.667,78.1667 493.667,81.8333 493,85.5C 490.263,86.6105 487.429,86.7772 484.5,86C 483.62,84.6439 483.286,83.1439 483.5,81.5C 485.575,81.6984 487.575,81.8651 489.5,82C 488.241,81.0766 486.908,80.2432 485.5,79.5C 486.609,77.7859 485.942,77.1192 483.5,77.5C 483.31,75.0411 484.31,73.3745 486.5,72.5 Z"/></g>
<g><path style="opacity:1" fill="#db9cab" d="M 273.5,78.5 C 277.833,78.5 282.167,78.5 286.5,78.5C 286.5,92.1667 286.5,105.833 286.5,119.5C 286.167,119.5 285.833,119.5 285.5,119.5C 285.5,106.167 285.5,92.8333 285.5,79.5C 274.427,79.3282 263.427,79.9949 252.5,81.5C 259.209,79.3653 266.209,78.3653 273.5,78.5 Z"/></g>
<g><path style="opacity:1" fill="#db5d7b" d="M 285.5,119.5 C 285.167,119.5 284.833,119.5 284.5,119.5C 272.911,119.287 261.577,120.787 250.5,124C 249.944,124.383 249.611,124.883 249.5,125.5C 245.16,126.502 240.826,127.669 236.5,129C 231.923,132.401 226.923,135.068 221.5,137C 216.699,141.518 211.365,145.185 205.5,148C 202.25,152.071 198.917,155.904 195.5,159.5C 192.812,160.024 191.312,161.691 191,164.5C 188.325,167.209 185.658,169.876 183,172.5C 182.392,174.154 181.892,175.821 181.5,177.5C 181.5,178.167 181.5,178.833 181.5,179.5C 179.496,180.673 177.996,182.34 177,184.5C 168.531,203.224 164.031,222.89 163.5,243.5C 163.509,247.893 164.176,251.893 165.5,255.5C 166.218,262.164 167.051,268.831 168,275.5C 168.2,277.32 169.034,278.653 170.5,279.5C 170.762,287.117 172.928,294.117 177,300.5C 182.267,309.595 188.6,317.928 196,325.5C 197.009,327.025 197.509,328.692 197.5,330.5C 199.947,330.615 201.947,331.615 203.5,333.5C 210.41,338.951 217.077,344.784 223.5,351C 226.354,352.397 229.02,353.897 231.5,355.5C 231.953,356.458 232.619,357.292 233.5,358C 246.489,365.107 260.156,370.44 274.5,374C 289.495,375.951 304.495,375.951 319.5,374C 328.352,371.934 337.019,369.434 345.5,366.5C 352.797,362.225 360.13,357.891 367.5,353.5C 372.975,349.194 378.308,344.694 383.5,340C 382.312,338.056 380.646,336.556 378.5,335.5C 377.571,334.311 377.238,332.978 377.5,331.5C 376.448,331.649 375.448,331.483 374.5,331C 373.801,325.472 370.801,321.972 365.5,320.5C 350.167,305.5 334.833,290.5 319.5,275.5C 313.112,267.112 305.779,259.779 297.5,253.5C 298.208,250.286 298.541,247.119 298.5,244C 347.832,243.5 397.166,243.333 446.5,243.5C 446.5,249.5 446.5,255.5 446.5,261.5C 446.5,264.167 446.5,266.833 446.5,269.5C 438.923,307.006 421.256,338.672 393.5,364.5C 380.95,374.386 367.616,383.053 353.5,390.5C 347.74,392.365 342.073,394.532 336.5,397C 330.848,398.274 325.181,399.441 319.5,400.5C 294.682,403.38 270.015,403.047 245.5,399.5C 238.872,398.567 232.539,396.734 226.5,394C 214.717,388.424 203.05,382.59 191.5,376.5C 188.305,373.148 184.638,370.315 180.5,368C 173.946,361.446 167.446,354.946 161,348.5C 155.747,342.323 151.247,335.656 147.5,328.5C 146.476,325.445 145.143,322.445 143.5,319.5C 143.043,318.702 142.376,318.369 141.5,318.5C 138.827,313.639 136.327,308.639 134,303.5C 130.989,294.635 128.489,285.635 126.5,276.5C 127.07,264.5 127.237,252.5 127,240.5C 126.829,245.533 126.329,250.533 125.5,255.5C 125.167,252.833 124.833,250.167 124.5,247.5C 125.227,234.166 125.894,220.832 126.5,207.5C 129.072,198.897 132.405,190.563 136.5,182.5C 138.137,180.525 139.804,178.525 141.5,176.5C 140.456,174.232 140.289,171.899 141,169.5C 145.116,165.411 148.616,160.911 151.5,156C 151.043,155.586 150.709,155.086 150.5,154.5C 152.104,152.821 152.771,150.821 152.5,148.5C 156.394,140.056 162.061,133.056 169.5,127.5C 170.922,127.291 172.255,126.791 173.5,126C 176.603,123.012 179.269,119.846 181.5,116.5C 196.058,103.377 212.725,93.5434 231.5,87C 238.31,84.381 245.31,82.5477 252.5,81.5C 263.427,79.9949 274.427,79.3282 285.5,79.5C 285.5,92.8333 285.5,106.167 285.5,119.5 Z"/></g>
<g><path style="opacity:0.584" fill="#5e5e5e" d="M 509.5,84.5 C 508.624,84.6309 507.957,84.2975 507.5,83.5C 508.167,82.5 508.833,81.5 509.5,80.5C 509.376,79.8933 509.043,79.56 508.5,79.5C 507.022,79.238 505.689,79.5713 504.5,80.5C 503.963,86.3165 500.963,87.9831 495.5,85.5C 494.167,81.8333 494.167,78.1667 495.5,74.5C 498.08,72.0063 500.747,72.0063 503.5,74.5C 506.671,71.6647 509.504,71.9981 512,75.5C 515.945,74.3784 516.445,75.3784 513.5,78.5C 517.094,79.8754 518.428,82.542 517.5,86.5C 514.467,86.8685 511.8,86.2018 509.5,84.5 Z"/></g>
<g><path style="opacity:0.036" fill="#dadada" d="M 499.5,76.5 C 500.797,78.6934 500.797,81.0268 499.5,83.5C 498.893,83.3764 498.56,83.0431 498.5,82.5C 499.461,80.7354 499.795,78.7354 499.5,76.5 Z"/></g>
<g><path style="opacity:0.973" fill="#e5aa68" d="M 466.5,70.5 C 477.983,69.8221 482.483,75.1554 480,86.5C 476.945,91.6348 472.445,93.4681 466.5,92C 459.06,87.3773 457.56,81.2106 462,73.5C 463.652,72.6006 465.152,71.6006 466.5,70.5 Z"/></g>
<g><path style="opacity:0.127" fill="#b1b1b1" d="M 508.5,79.5 C 509.043,79.56 509.376,79.8933 509.5,80.5C 508.833,81.5 508.167,82.5 507.5,83.5C 507.957,84.2975 508.624,84.6309 509.5,84.5C 508.791,85.404 507.791,85.7373 506.5,85.5C 506.253,83.1417 506.919,81.1417 508.5,79.5 Z"/></g>
<g><path style="opacity:1" fill="#f2972d" d="M 466.5,72.5 C 478.025,71.3833 481.691,76.3833 477.5,87.5C 476.713,88.2421 476.047,89.0754 475.5,90C 472.167,90.6667 468.833,90.6667 465.5,90C 461.234,86.2165 460.067,81.7165 462,76.5C 463.992,75.6719 465.492,74.3386 466.5,72.5 Z"/></g>
<g><path style="opacity:0.922" fill="#eaa459" d="M 468.5,76.5 C 470.39,76.2965 471.89,76.9632 473,78.5C 472.599,81.0613 472.765,83.7279 473.5,86.5C 471.105,87.3635 468.771,87.3635 466.5,86.5C 465.628,83.4249 466.628,80.9249 469.5,79C 468.748,78.3292 468.414,77.4959 468.5,76.5 Z"/></g>
<g><path style="opacity:1" fill="#dcdddd" d="M 348.5,79.5 C 348.5,80.8333 349.167,81.5 350.5,81.5C 347.912,83.5918 344.912,84.9251 341.5,85.5C 323.443,91.1073 305.61,97.4407 288,104.5C 287.833,104.167 287.667,103.833 287.5,103.5C 300.085,98.3619 312.752,93.5286 325.5,89C 328.633,88.1404 331.3,86.6404 333.5,84.5C 338.406,82.5467 343.406,80.88 348.5,79.5 Z"/></g>
<g><path style="opacity:0.993" fill="#f8f8f8" d="M 273.5,78.5 C 293.755,76.5235 313.755,78.5235 333.5,84.5C 331.3,86.6404 328.633,88.1404 325.5,89C 312.752,93.5286 300.085,98.3619 287.5,103.5C 287.667,103.833 287.833,104.167 288,104.5C 305.61,97.4407 323.443,91.1073 341.5,85.5C 352.407,91.2896 363.407,97.1229 374.5,103C 379.685,106.697 384.685,110.53 389.5,114.5C 378.212,115.291 366.879,115.791 355.5,116C 353.026,116.037 351.026,116.87 349.5,118.5C 341.338,121.292 333.005,123.625 324.5,125.5C 312.064,122.08 299.397,120.08 286.5,119.5C 286.5,105.833 286.5,92.1667 286.5,78.5C 282.167,78.5 277.833,78.5 273.5,78.5 Z"/></g>
<g><path style="opacity:0.184" fill="#8c8d90" d="M 485.5,111.5 C 487.694,110.234 490.028,110.234 492.5,111.5C 493.793,113.636 493.793,115.636 492.5,117.5C 491.587,115.914 491.587,114.414 492.5,113C 490.323,111.798 487.989,111.298 485.5,111.5 Z"/></g>
<g><path style="opacity:0.812" fill="#4a4a4c" d="M 485.5,111.5 C 487.989,111.298 490.323,111.798 492.5,113C 491.587,114.414 491.587,115.914 492.5,117.5C 490.896,116.713 490.229,115.38 490.5,113.5C 488.508,113.328 486.842,113.995 485.5,115.5C 484.614,114.675 484.281,113.675 484.5,112.5C 484.5,111.833 484.833,111.5 485.5,111.5 Z"/></g>
<g><path style="opacity:0.043" fill="#e0e0e0" d="M 503.5,112.5 C 503.833,112.5 504.167,112.5 504.5,112.5C 504.5,113.5 504.5,114.5 504.5,115.5C 503.609,114.89 502.609,114.557 501.5,114.5C 500.448,114.649 499.448,114.483 498.5,114C 500.382,113.802 502.048,113.302 503.5,112.5 Z"/></g>
<g><path style="opacity:0.504" fill="#d4d4d4" d="M 389.5,114.5 C 409.501,115.017 429.501,115.684 449.5,116.5C 431.799,117.193 414.133,117.86 396.5,118.5C 380.852,117.198 365.186,117.198 349.5,118.5C 351.026,116.87 353.026,116.037 355.5,116C 366.879,115.791 378.212,115.291 389.5,114.5 Z"/></g>
<g><path style="opacity:0.839" fill="#a2a1a1" d="M 484.5,112.5 C 484.281,113.675 484.614,114.675 485.5,115.5C 486.842,113.995 488.508,113.328 490.5,113.5C 490.229,115.38 490.896,116.713 492.5,117.5C 492.047,118.458 491.381,119.292 490.5,120C 491.416,120.278 492.082,120.778 492.5,121.5C 491.5,121.5 490.5,121.5 489.5,121.5C 489.719,120.325 489.386,119.325 488.5,118.5C 487.482,119.193 486.482,119.859 485.5,120.5C 486.263,118.433 487.596,116.766 489.5,115.5C 489.167,115.167 488.833,114.833 488.5,114.5C 487.158,116.005 485.492,116.672 483.5,116.5C 483.232,114.901 483.566,113.568 484.5,112.5 Z"/></g>
<g><path style="opacity:0.997" fill="#f8f8f8" d="M 396.5,118.5 C 402.792,125.962 409.292,133.295 416,140.5C 418.674,143.846 420.841,147.513 422.5,151.5C 425.421,152.407 428.421,152.74 431.5,152.5C 411.34,153.497 391.007,153.83 370.5,153.5C 357.924,142.721 344.257,133.721 329.5,126.5C 336.47,124.403 343.137,121.736 349.5,118.5C 365.186,117.198 380.852,117.198 396.5,118.5 Z"/></g>
<g><path style="opacity:0.584" fill="#636363" d="M 509.5,122.5 C 508.624,122.631 507.957,122.298 507.5,121.5C 508.127,120.583 508.461,119.583 508.5,118.5C 506.924,117.857 505.59,116.857 504.5,115.5C 504.5,114.5 504.5,113.5 504.5,112.5C 505.134,111.053 506.301,110.387 508,110.5C 510.573,112.059 513.073,113.059 515.5,113.5C 512.889,115.798 513.389,117.465 517,118.5C 517.495,124.798 514.995,126.132 509.5,122.5 Z"/></g>
<g><path style="opacity:1" fill="#da8599" d="M 181.5,116.5 C 179.269,119.846 176.603,123.012 173.5,126C 172.255,126.791 170.922,127.291 169.5,127.5C 172.271,122.455 176.271,118.789 181.5,116.5 Z"/></g>
<g><path style="opacity:0.118" fill="#afafaf" d="M 508.5,118.5 C 508.461,119.583 508.127,120.583 507.5,121.5C 507.957,122.298 508.624,122.631 509.5,122.5C 508.791,123.404 507.791,123.737 506.5,123.5C 506.12,121.302 506.787,119.635 508.5,118.5 Z"/></g>
<g><path style="opacity:0.45" fill="#4b4b4b" d="M 492.5,121.5 C 492.833,121.5 493.167,121.5 493.5,121.5C 492.486,122.765 490.986,123.431 489,123.5C 487.5,123.167 486,122.833 484.5,122.5C 484.863,121.817 485.196,121.15 485.5,120.5C 486.482,119.859 487.482,119.193 488.5,118.5C 489.386,119.325 489.719,120.325 489.5,121.5C 490.5,121.5 491.5,121.5 492.5,121.5 Z"/></g>
<g><path style="opacity:0.792" fill="#575757" d="M 503.5,112.5 C 502.048,113.302 500.382,113.802 498.5,114C 499.448,114.483 500.448,114.649 501.5,114.5C 505.989,119.213 505.155,122.546 499,124.5C 497.301,124.613 496.134,123.947 495.5,122.5C 495.285,120.821 495.952,119.821 497.5,119.5C 499.353,120.614 499.853,119.948 499,117.5C 498.617,118.056 498.117,118.389 497.5,118.5C 496.833,118.5 496.167,118.5 495.5,118.5C 495.043,115.976 495.043,113.309 495.5,110.5C 498.698,109.964 501.365,110.631 503.5,112.5 Z"/></g>
<g><path style="opacity:1" fill="#f08f60" d="M 284.5,119.5 C 283.473,122.26 281.64,122.927 279,121.5C 269.103,122.532 259.27,123.865 249.5,125.5C 249.611,124.883 249.944,124.383 250.5,124C 261.577,120.787 272.911,119.287 284.5,119.5 Z"/></g>
<g><path style="opacity:0.506" fill="#9d9d9d" d="M 495.5,118.5 C 496.167,118.5 496.833,118.5 497.5,118.5C 497.5,118.833 497.5,119.167 497.5,119.5C 495.952,119.821 495.285,120.821 495.5,122.5C 491.827,124.318 487.827,124.984 483.5,124.5C 483.157,122.517 483.824,121.183 485.5,120.5C 485.196,121.15 484.863,121.817 484.5,122.5C 486,122.833 487.5,123.167 489,123.5C 490.986,123.431 492.486,122.765 493.5,121.5C 494.167,120.5 494.833,119.5 495.5,118.5 Z"/></g>
<g><path style="opacity:1" fill="#f09d50" d="M 284.5,119.5 C 284.833,119.5 285.167,119.5 285.5,119.5C 285.5,133.167 285.5,146.833 285.5,160.5C 273.969,160.077 262.969,162.243 252.5,167C 244.068,171.618 236.068,176.785 228.5,182.5C 226.789,185.196 225.122,187.862 223.5,190.5C 221.133,192.18 218.966,194.18 217,196.5C 209.07,210.206 204.903,225.039 204.5,241C 204.344,246.09 205.01,250.923 206.5,255.5C 206.881,260.237 207.714,264.904 209,269.5C 212.833,276.5 216.667,283.5 220.5,290.5C 225.551,296.553 231.218,301.887 237.5,306.5C 237.833,307.167 238.167,307.833 238.5,308.5C 242.191,314.701 247.524,319.034 254.5,321.5C 255.04,322.748 255.707,323.915 256.5,325C 265.511,328.004 274.511,331.004 283.5,334C 288.155,334.499 292.821,334.666 297.5,334.5C 297.5,307.833 297.5,281.167 297.5,254.5C 304.649,261.307 311.982,268.307 319.5,275.5C 334.833,290.5 350.167,305.5 365.5,320.5C 366.474,323.496 368.474,325.163 371.5,325.5C 371.657,326.873 371.49,328.207 371,329.5C 367.36,334.144 362.86,337.644 357.5,340C 352.909,343.775 348.243,347.275 343.5,350.5C 335.205,352.325 327.205,354.991 319.5,358.5C 309.236,359.886 298.903,361.219 288.5,362.5C 284.431,362.496 280.431,361.996 276.5,361C 275.289,360.107 275.289,359.274 276.5,358.5C 280.813,357.229 285.146,357.229 289.5,358.5C 291.608,358.14 293.608,357.473 295.5,356.5C 291.5,356.167 287.5,355.833 283.5,355.5C 274.858,355.455 266.358,356.455 258,358.5C 255.116,358.394 252.282,358.061 249.5,357.5C 245.039,356.944 240.706,355.777 236.5,354C 231.54,350.57 226.207,347.903 220.5,346C 216.833,342.667 213.167,339.333 209.5,336C 207.783,334.441 205.783,333.608 203.5,333.5C 196.171,324.666 189.004,315.666 182,306.5C 180.896,302.833 179.229,299.5 177,296.5C 176.386,290.116 174.219,284.45 170.5,279.5C 169.034,278.653 168.2,277.32 168,275.5C 167.051,268.831 166.218,262.164 165.5,255.5C 165.683,239.277 167.516,223.277 171,207.5C 171.333,209.167 171.667,210.833 172,212.5C 173.299,211.91 174.132,210.91 174.5,209.5C 172.806,206.336 172.306,203.002 173,199.5C 175.313,192.588 178.147,185.922 181.5,179.5C 181.5,178.833 181.5,178.167 181.5,177.5C 187.162,172.319 191.829,166.319 195.5,159.5C 198.838,157.485 201.838,154.985 204.5,152C 209.066,151.279 212.399,148.945 214.5,145C 218.089,143.086 221.422,140.752 224.5,138C 228.62,135.682 232.953,133.848 237.5,132.5C 237.5,131.5 237.5,130.5 237.5,129.5C 241.902,129.074 245.902,127.74 249.5,125.5C 259.27,123.865 269.103,122.532 279,121.5C 281.64,122.927 283.473,122.26 284.5,119.5 Z"/></g>
<g><path style="opacity:1" fill="#efefef" d="M 329.5,126.5 C 344.257,133.721 357.924,142.721 370.5,153.5C 362.064,152.752 353.898,153.752 346,156.5C 342.807,154.828 341.974,155.495 343.5,158.5C 335.02,161.211 326.353,163.544 317.5,165.5C 307.985,162.704 298.318,160.704 288.5,159.5C 288.172,154.125 288.505,148.792 289.5,143.5C 293.464,141.851 297.131,139.684 300.5,137C 310.152,133.341 319.819,129.841 329.5,126.5 Z"/></g>
<g><path style="opacity:1" fill="#7d88b6" d="M 476.5,127.5 C 473.221,128.492 469.888,128.659 466.5,128C 465.058,127.623 464.058,126.79 463.5,125.5C 462.833,125.5 462.167,125.5 461.5,125.5C 456.987,116.187 459.821,110.187 470,107.5C 478.89,109.27 482.224,114.603 480,123.5C 479.34,125.324 478.173,126.657 476.5,127.5 Z"/></g>
<g><path style="opacity:1" fill="#6a79ba" d="M 463.5,125.5 C 462.174,122.999 461.674,120.332 462,117.5C 465.922,109.29 471.255,108.29 478,114.5C 478.498,117.482 478.665,120.482 478.5,123.5C 477.127,123.343 475.793,123.51 474.5,124C 474.957,124.414 475.291,124.914 475.5,125.5C 473.187,126.273 470.854,126.94 468.5,127.5C 467.15,126.05 465.484,125.383 463.5,125.5 Z"/></g>
<g><path style="opacity:0.498" fill="#8a97cd" d="M 469.5,114.5 C 470.397,115.598 471.23,115.598 472,114.5C 472.98,115.981 474.147,117.315 475.5,118.5C 475.529,121.666 473.695,123.666 470,124.5C 468.298,123.631 467.131,122.298 466.5,120.5C 467.465,118.463 468.465,116.463 469.5,114.5 Z"/></g>
<g><path style="opacity:0.278" fill="#cad0ea" d="M 461.5,125.5 C 462.167,125.5 462.833,125.5 463.5,125.5C 464.058,126.79 465.058,127.623 466.5,128C 469.888,128.659 473.221,128.492 476.5,127.5C 476.389,128.117 476.056,128.617 475.5,129C 472.167,129.667 468.833,129.667 465.5,129C 463.676,128.34 462.343,127.173 461.5,125.5 Z"/></g>
<g><path style="opacity:1" fill="#ee8c60" d="M 249.5,125.5 C 245.902,127.74 241.902,129.074 237.5,129.5C 237.5,130.5 237.5,131.5 237.5,132.5C 232.953,133.848 228.62,135.682 224.5,138C 221.422,140.752 218.089,143.086 214.5,145C 212.399,148.945 209.066,151.279 204.5,152C 201.838,154.985 198.838,157.485 195.5,159.5C 198.917,155.904 202.25,152.071 205.5,148C 211.365,145.185 216.699,141.518 221.5,137C 226.923,135.068 231.923,132.401 236.5,129C 240.826,127.669 245.16,126.502 249.5,125.5 Z"/></g>
<g><path style="opacity:0.282" fill="#969498" d="M 467.5,146.5 C 469.288,145.378 471.288,145.211 473.5,146C 475.32,146.2 476.653,147.034 477.5,148.5C 474.302,147.213 470.969,146.547 467.5,146.5 Z"/></g>
<g><path style="opacity:0.78" fill="#4e4e4e" d="M 492.5,149.5 C 492.785,151.288 492.452,152.955 491.5,154.5C 490.614,153.675 490.281,152.675 490.5,151.5C 488.508,151.328 486.842,151.995 485.5,153.5C 484.614,152.675 484.281,151.675 484.5,150.5C 486.799,148.231 489.466,147.898 492.5,149.5 Z"/></g>
<g><path style="opacity:0.999" fill="#d5d5d5" d="M 431.5,152.5 C 436.511,152.334 441.511,152.501 446.5,153C 446.957,153.414 447.291,153.914 447.5,154.5C 440.866,155.497 434.2,155.83 427.5,155.5C 409.674,154.503 391.674,154.17 373.5,154.5C 363.147,153.567 353.147,154.901 343.5,158.5C 341.974,155.495 342.807,154.828 346,156.5C 353.898,153.752 362.064,152.752 370.5,153.5C 391.007,153.83 411.34,153.497 431.5,152.5 Z"/></g>
<g><path style="opacity:1" fill="#efefef" d="M 373.5,154.5 C 373.389,155.117 373.056,155.617 372.5,156C 383.611,167.721 392.611,180.887 399.5,195.5C 398.833,195.5 398.167,195.5 397.5,195.5C 382.17,194.567 366.837,194.067 351.5,194C 349.923,190.749 347.923,187.749 345.5,185C 338.236,178.56 330.569,172.727 322.5,167.5C 329.673,164.672 336.673,161.672 343.5,158.5C 353.147,154.901 363.147,153.567 373.5,154.5 Z"/></g>
<g><path style="opacity:0.996" fill="#f8f8f8" d="M 373.5,154.5 C 391.674,154.17 409.674,154.503 427.5,155.5C 427.389,156.117 427.056,156.617 426.5,157C 434.173,168.512 439.506,181.012 442.5,194.5C 428.343,195.496 414.01,195.829 399.5,195.5C 392.611,180.887 383.611,167.721 372.5,156C 373.056,155.617 373.389,155.117 373.5,154.5 Z"/></g>
<g><path style="opacity:0.716" fill="#919191" d="M 492.5,149.5 C 494.147,152.752 493.48,155.586 490.5,158C 491.737,158.232 492.737,158.732 493.5,159.5C 493.833,159.5 494.167,159.5 494.5,159.5C 494.5,159.833 494.5,160.167 494.5,160.5C 491.316,162.414 487.649,163.08 483.5,162.5C 483.343,161.127 483.51,159.793 484,158.5C 485.973,156.772 487.806,154.939 489.5,153C 487.689,153.707 485.689,154.207 483.5,154.5C 483.232,152.901 483.566,151.568 484.5,150.5C 484.281,151.675 484.614,152.675 485.5,153.5C 486.842,151.995 488.508,151.328 490.5,151.5C 490.281,152.675 490.614,153.675 491.5,154.5C 492.452,152.955 492.785,151.288 492.5,149.5 Z"/></g>
<g><path style="opacity:0.035" fill="#f3f3f3" d="M 495.5,155.5 C 496.167,155.833 496.833,156.167 497.5,156.5C 497.5,156.833 497.5,157.167 497.5,157.5C 496.5,157.5 495.5,157.5 494.5,157.5C 494.833,156.833 495.167,156.167 495.5,155.5 Z"/></g>
<g><path style="opacity:0.476" fill="#626262" d="M 494.5,160.5 C 494.5,160.167 494.5,159.833 494.5,159.5C 494.5,158.833 494.5,158.167 494.5,157.5C 495.5,157.5 496.5,157.5 497.5,157.5C 499.54,158.475 499.873,157.808 498.5,155.5C 497.893,155.624 497.56,155.957 497.5,156.5C 496.833,156.167 496.167,155.833 495.5,155.5C 495.135,153.412 495.135,151.079 495.5,148.5C 498.711,148.012 501.544,148.679 504,150.5C 504.956,149.106 506.289,148.439 508,148.5C 510.325,149.965 512.658,150.632 515,150.5C 515.333,152.047 514.833,153.38 513.5,154.5C 517.149,155.526 518.315,157.859 517,161.5C 516.107,162.081 515.107,162.415 514,162.5C 511.73,161.14 509.23,160.473 506.5,160.5C 506.297,158.61 506.963,157.11 508.5,156C 507.207,155.51 505.873,155.343 504.5,155.5C 503.774,162.505 500.441,164.172 494.5,160.5 Z M 503.5,153.5 C 502.078,153.291 500.745,152.791 499.5,152C 501.463,151.156 502.796,151.656 503.5,153.5 Z"/></g>
<g><path style="opacity:0.996" fill="#16191c" d="M 467.5,146.5 C 470.969,146.547 474.302,147.213 477.5,148.5C 481.688,154.526 481.354,160.359 476.5,166C 475.552,166.483 474.552,166.649 473.5,166.5C 469.139,166.709 465.139,165.709 461.5,163.5C 458.43,157.802 459.097,152.469 463.5,147.5C 464.736,146.754 466.07,146.421 467.5,146.5 Z"/></g>
<g><path style="opacity:1" fill="#517598" d="M 465.5,155.5 C 468.572,155.183 471.572,155.516 474.5,156.5C 472.053,158.223 469.387,158.723 466.5,158C 465.748,157.329 465.414,156.496 465.5,155.5 Z"/></g>
<g><path style="opacity:1" fill="#37767a" d="M 465.5,151.5 C 468.898,151.18 472.232,151.513 475.5,152.5C 475.291,153.086 474.957,153.586 474.5,154C 471.118,154.824 467.784,154.657 464.5,153.5C 464.863,152.817 465.196,152.15 465.5,151.5 Z"/></g>
<g><path style="opacity:0.663" fill="#3d3d3d" d="M 493.5,159.5 C 492.486,160.765 490.986,161.431 489,161.5C 487.5,161.167 486,160.833 484.5,160.5C 485.501,158.064 486.668,158.064 488,160.5C 489.766,159.767 491.599,159.433 493.5,159.5 Z"/></g>
<g><path style="opacity:1" fill="#5e6b98" d="M 465.5,159.5 C 468.898,159.18 472.232,159.513 475.5,160.5C 473.833,160.833 472.167,161.167 470.5,161.5C 468.36,161.444 466.694,160.777 465.5,159.5 Z"/></g>
<g><path style="opacity:0.2" fill="#9c9b9c" d="M 461.5,163.5 C 465.139,165.709 469.139,166.709 473.5,166.5C 471.372,167.629 469.039,167.796 466.5,167C 464.119,166.777 462.453,165.61 461.5,163.5 Z"/></g>
<g><path style="opacity:1" fill="#e7e7e7" d="M 349.5,118.5 C 343.137,121.736 336.47,124.403 329.5,126.5C 319.819,129.841 310.152,133.341 300.5,137C 297.131,139.684 293.464,141.851 289.5,143.5C 288.505,148.792 288.172,154.125 288.5,159.5C 298.318,160.704 307.985,162.704 317.5,165.5C 326.353,163.544 335.02,161.211 343.5,158.5C 336.673,161.672 329.673,164.672 322.5,167.5C 330.569,172.727 338.236,178.56 345.5,185C 347.923,187.749 349.923,190.749 351.5,194C 366.837,194.067 382.17,194.567 397.5,195.5C 382.163,195.333 366.83,195.5 351.5,196C 349.283,197.275 346.949,198.275 344.5,199C 343.304,199.654 343.304,200.154 344.5,200.5C 347.859,199.151 351.192,197.818 354.5,196.5C 355.263,197.268 356.263,197.768 357.5,198C 356.833,198.333 356.167,198.667 355.5,199C 363.332,211.294 367.332,224.794 367.5,239.5C 380.833,239.5 394.167,239.5 407.5,239.5C 407.5,239.833 407.5,240.167 407.5,240.5C 367.5,240.5 327.5,240.5 287.5,240.5C 287.479,200.163 287.146,159.83 286.5,119.5C 299.397,120.08 312.064,122.08 324.5,125.5C 333.005,123.625 341.338,121.292 349.5,118.5 Z"/></g>
<g><path style="opacity:1" fill="#f4e766" d="M 285.5,160.5 C 285.5,174.167 285.5,187.833 285.5,201.5C 263.46,202.61 249.96,213.943 245,235.5C 243.115,250.004 247.615,262.004 258.5,271.5C 262.304,274.472 265.637,277.972 268.5,282C 269.609,282.638 270.775,283.138 272,283.5C 276.962,278.905 281.462,273.905 285.5,268.5C 285.5,286.5 285.5,304.5 285.5,322.5C 282.833,322.5 280.167,322.5 277.5,322.5C 275.265,322.795 273.265,322.461 271.5,321.5C 271.389,320.883 271.056,320.383 270.5,320C 268.167,319.667 265.833,319.333 263.5,319C 259.258,316.264 254.591,314.431 249.5,313.5C 246.207,310.087 242.207,307.754 237.5,306.5C 231.218,301.887 225.551,296.553 220.5,290.5C 216.667,283.5 212.833,276.5 209,269.5C 207.714,264.904 206.881,260.237 206.5,255.5C 206.185,244.269 206.851,233.103 208.5,222C 208.769,220.393 209.603,219.226 211,218.5C 212.342,211.054 214.675,204.054 218,197.5C 221.155,196.181 222.988,193.848 223.5,190.5C 225.122,187.862 226.789,185.196 228.5,182.5C 236.068,176.785 244.068,171.618 252.5,167C 262.969,162.243 273.969,160.077 285.5,160.5 Z"/></g>
<g><path style="opacity:1" fill="#df7068" d="M 195.5,159.5 C 191.829,166.319 187.162,172.319 181.5,177.5C 181.892,175.821 182.392,174.154 183,172.5C 185.658,169.876 188.325,167.209 191,164.5C 191.312,161.691 192.812,160.024 195.5,159.5 Z"/></g>
<g><path style="opacity:1" fill="#d7748b" d="M 152.5,148.5 C 152.771,150.821 152.104,152.821 150.5,154.5C 150.709,155.086 151.043,155.586 151.5,156C 148.616,160.911 145.116,165.411 141,169.5C 140.289,171.899 140.456,174.232 141.5,176.5C 139.804,178.525 138.137,180.525 136.5,182.5C 132.405,190.563 129.072,198.897 126.5,207.5C 130.044,185.426 138.711,165.759 152.5,148.5 Z"/></g>
<g><path style="opacity:0.606" fill="#3e3e3e" d="M 486.5,188.5 C 488.655,188.372 490.655,188.872 492.5,190C 491.272,191.49 491.272,192.99 492.5,194.5C 490.824,193.817 490.157,192.483 490.5,190.5C 488.801,190.66 487.134,190.494 485.5,190C 486.056,189.617 486.389,189.117 486.5,188.5 Z"/></g>
<g><path style="opacity:0.49" fill="#89898a" d="M 486.5,188.5 C 486.389,189.117 486.056,189.617 485.5,190C 487.134,190.494 488.801,190.66 490.5,190.5C 490.157,192.483 490.824,193.817 492.5,194.5C 492.573,196.027 491.906,197.027 490.5,197.5C 490.179,195.952 489.179,195.285 487.5,195.5C 488.8,194.399 489.3,193.066 489,191.5C 487.556,193.155 485.722,193.822 483.5,193.5C 482.916,190.715 483.916,189.048 486.5,188.5 Z"/></g>
<g><path style="opacity:0.933" fill="#585859" d="M 486.5,188.5 C 489.542,186.98 492.208,187.647 494.5,190.5C 498.09,186.315 501.257,186.649 504,191.5C 504.69,187.81 506.857,186.643 510.5,188C 511.126,188.75 511.626,189.584 512,190.5C 512.671,189.748 513.504,189.414 514.5,189.5C 514.167,190.833 513.833,192.167 513.5,193.5C 517.144,194.405 518.311,196.738 517,200.5C 515.057,201.807 513.223,201.807 511.5,200.5C 510.993,199.141 509.993,198.141 508.5,197.5C 509.872,195.38 509.205,194.38 506.5,194.5C 505.034,196.686 503.368,198.853 501.5,201C 498.341,202.084 496.008,201.25 494.5,198.5C 494.662,196.473 494.495,194.473 494,192.5C 493.722,193.416 493.222,194.082 492.5,194.5C 491.272,192.99 491.272,191.49 492.5,190C 490.655,188.872 488.655,188.372 486.5,188.5 Z M 500.5,195.5 C 499.833,196.167 499.167,196.833 498.5,197.5C 498.338,195.473 498.505,193.473 499,191.5C 499.791,192.745 500.291,194.078 500.5,195.5 Z"/></g>
<g><path style="opacity:0.024" fill="#d8d8d8" d="M 514.5,189.5 C 515.853,191.128 515.519,192.462 513.5,193.5C 513.833,192.167 514.167,190.833 514.5,189.5 Z"/></g>
<g><path style="opacity:0.982" fill="#b6a459" d="M 477.5,204.5 C 476.448,204.649 475.448,204.483 474.5,204C 479.404,193.672 476.071,189.172 464.5,190.5C 464.079,194.2 463.412,197.867 462.5,201.5C 461.817,201.137 461.15,200.804 460.5,200.5C 458.022,189.14 462.688,184.307 474.5,186C 479.85,189.371 481.683,194.204 480,200.5C 479.338,201.984 478.504,203.317 477.5,204.5 Z"/></g>
<g><path style="opacity:1" fill="#d0d0d0" d="M 442.5,194.5 C 444.429,194.231 446.095,194.731 447.5,196C 446.552,196.483 445.552,196.649 444.5,196.5C 429.5,196.5 414.5,196.5 399.5,196.5C 384.5,196.5 369.5,196.5 354.5,196.5C 351.192,197.818 347.859,199.151 344.5,200.5C 343.304,200.154 343.304,199.654 344.5,199C 346.949,198.275 349.283,197.275 351.5,196C 366.83,195.5 382.163,195.333 397.5,195.5C 398.167,195.5 398.833,195.5 399.5,195.5C 414.01,195.829 428.343,195.496 442.5,194.5 Z"/></g>
<g><path style="opacity:1" fill="#efefef" d="M 354.5,196.5 C 369.5,196.5 384.5,196.5 399.5,196.5C 404.799,210.642 407.466,224.976 407.5,239.5C 394.167,239.5 380.833,239.5 367.5,239.5C 367.332,224.794 363.332,211.294 355.5,199C 356.167,198.667 356.833,198.333 357.5,198C 356.263,197.768 355.263,197.268 354.5,196.5 Z"/></g>
<g><path style="opacity:0.991" fill="#f9f8f8" d="M 399.5,196.5 C 414.5,196.5 429.5,196.5 444.5,196.5C 447.809,210.972 449.476,225.638 449.5,240.5C 435.5,240.5 421.5,240.5 407.5,240.5C 407.5,240.167 407.5,239.833 407.5,239.5C 407.466,224.976 404.799,210.642 399.5,196.5 Z"/></g>
<g><path style="opacity:0.651" fill="#3e3f40" d="M 487.5,195.5 C 489.179,195.285 490.179,195.952 490.5,197.5C 489.957,197.56 489.624,197.893 489.5,198.5C 490.729,199.281 492.062,199.781 493.5,200C 490.5,200.667 487.5,200.667 484.5,200C 485.823,199.184 486.489,198.017 486.5,196.5C 486.5,195.833 486.833,195.5 487.5,195.5 Z"/></g>
<g><path style="opacity:0.067" fill="#e3e3e3" d="M 500.5,195.5 C 500.719,196.675 500.386,197.675 499.5,198.5C 498.893,198.376 498.56,198.043 498.5,197.5C 499.167,196.833 499.833,196.167 500.5,195.5 Z"/></g>
<g><path style="opacity:0.416" fill="#9e9e9e" d="M 506.5,194.5 C 509.205,194.38 509.872,195.38 508.5,197.5C 509.993,198.141 510.993,199.141 511.5,200.5C 510.027,199.929 508.36,199.929 506.5,200.5C 507.275,198.388 507.275,196.388 506.5,194.5 Z"/></g>
<g><path style="opacity:0.514" fill="#919293" d="M 486.5,196.5 C 486.489,198.017 485.823,199.184 484.5,200C 487.5,200.667 490.5,200.667 493.5,200C 492.062,199.781 490.729,199.281 489.5,198.5C 489.624,197.893 489.957,197.56 490.5,197.5C 491.568,198.434 492.901,198.768 494.5,198.5C 494.5,199.5 494.5,200.5 494.5,201.5C 490.833,201.5 487.167,201.5 483.5,201.5C 483.273,199.067 484.273,197.401 486.5,196.5 Z"/></g>
<g><path style="opacity:1" fill="#d2c386" d="M 477.5,204.5 C 477.082,205.222 476.416,205.722 475.5,206C 472.167,206.667 468.833,206.667 465.5,206C 462.921,204.924 461.254,203.091 460.5,200.5C 461.15,200.804 461.817,201.137 462.5,201.5C 463.412,197.867 464.079,194.2 464.5,190.5C 476.071,189.172 479.404,193.672 474.5,204C 475.448,204.483 476.448,204.649 477.5,204.5 Z"/></g>
<g><path style="opacity:1" fill="#9fcc53" d="M 285.5,201.5 C 285.5,214.833 285.5,228.167 285.5,241.5C 285.5,241.833 285.5,242.167 285.5,242.5C 282.839,248.058 278.672,252.725 273,256.5C 270.275,262.223 266.442,267.057 261.5,271C 260.552,271.483 259.552,271.649 258.5,271.5C 247.615,262.004 243.115,250.004 245,235.5C 249.96,213.943 263.46,202.61 285.5,201.5 Z"/></g>
<g><path style="opacity:1" fill="#ef915e" d="M 181.5,179.5 C 178.147,185.922 175.313,192.588 173,199.5C 172.306,203.002 172.806,206.336 174.5,209.5C 174.132,210.91 173.299,211.91 172,212.5C 171.667,210.833 171.333,209.167 171,207.5C 167.516,223.277 165.683,239.277 165.5,255.5C 164.176,251.893 163.509,247.893 163.5,243.5C 164.031,222.89 168.531,203.224 177,184.5C 177.996,182.34 179.496,180.673 181.5,179.5 Z"/></g>
<g><path style="opacity:1" fill="#f9d565" d="M 223.5,190.5 C 222.988,193.848 221.155,196.181 218,197.5C 214.675,204.054 212.342,211.054 211,218.5C 209.603,219.226 208.769,220.393 208.5,222C 206.851,233.103 206.185,244.269 206.5,255.5C 205.01,250.923 204.344,246.09 204.5,241C 204.903,225.039 209.07,210.206 217,196.5C 218.966,194.18 221.133,192.18 223.5,190.5 Z"/></g>
<g><path style="opacity:1" fill="#ddd8af" d="M 285.5,119.5 C 285.833,119.5 286.167,119.5 286.5,119.5C 287.146,159.83 287.479,200.163 287.5,240.5C 287.5,240.833 287.5,241.167 287.5,241.5C 286.833,241.5 286.167,241.5 285.5,241.5C 285.5,228.167 285.5,214.833 285.5,201.5C 285.5,187.833 285.5,174.167 285.5,160.5C 285.5,146.833 285.5,133.167 285.5,119.5 Z"/></g>
<g><path style="opacity:0.678" fill="#d87b90" d="M 126.5,207.5 C 125.894,220.832 125.227,234.166 124.5,247.5C 124.833,250.167 125.167,252.833 125.5,255.5C 126.329,250.533 126.829,245.533 127,240.5C 127.237,252.5 127.07,264.5 126.5,276.5C 121.19,253.497 121.19,230.497 126.5,207.5 Z"/></g>
<g><path style="opacity:0.985" fill="#f8d9e0" d="M 287.5,241.5 C 287.5,241.167 287.5,240.833 287.5,240.5C 327.5,240.5 367.5,240.5 407.5,240.5C 421.5,240.5 435.5,240.5 449.5,240.5C 450.338,240.842 450.672,241.508 450.5,242.5C 450.193,248.093 450.527,253.593 451.5,259C 449.336,262.36 447.669,265.86 446.5,269.5C 446.5,266.833 446.5,264.167 446.5,261.5C 447.404,260.791 447.737,259.791 447.5,258.5C 448.489,253.025 448.822,247.358 448.5,241.5C 394.833,241.5 341.167,241.5 287.5,241.5 Z"/></g>
<g><path style="opacity:1" fill="#e094a7" d="M 287.5,242.5 C 287.5,242.167 287.5,241.833 287.5,241.5C 341.167,241.5 394.833,241.5 448.5,241.5C 448.822,247.358 448.489,253.025 447.5,258.5C 447.5,253.167 447.5,247.833 447.5,242.5C 394.167,242.5 340.833,242.5 287.5,242.5 Z"/></g>
<g><path style="opacity:1" fill="#c86278" d="M 287.5,242.5 C 340.833,242.5 394.167,242.5 447.5,242.5C 447.5,247.833 447.5,253.167 447.5,258.5C 447.737,259.791 447.404,260.791 446.5,261.5C 446.5,255.5 446.5,249.5 446.5,243.5C 397.166,243.333 347.832,243.5 298.5,244C 298.541,247.119 298.208,250.286 297.5,253.5C 293.434,250.437 290.101,246.771 287.5,242.5 Z"/></g>
<g><path style="opacity:1" fill="#bf8248" d="M 285.5,241.5 C 286.167,241.5 286.833,241.5 287.5,241.5C 287.5,241.833 287.5,242.167 287.5,242.5C 290.101,246.771 293.434,250.437 297.5,253.5C 297.5,253.833 297.5,254.167 297.5,254.5C 297.5,281.167 297.5,307.833 297.5,334.5C 292.821,334.666 288.155,334.499 283.5,334C 274.511,331.004 265.511,328.004 256.5,325C 255.707,323.915 255.04,322.748 254.5,321.5C 247.524,319.034 242.191,314.701 238.5,308.5C 248.215,315.849 259.215,320.182 271.5,321.5C 273.265,322.461 275.265,322.795 277.5,322.5C 280.287,323.477 283.287,323.81 286.5,323.5C 286.83,304.992 286.497,286.659 285.5,268.5C 285.5,259.833 285.5,251.167 285.5,242.5C 285.5,242.167 285.5,241.833 285.5,241.5 Z"/></g>
<g><path style="opacity:1" fill="#e57e65" d="M 297.5,254.5 C 297.5,254.167 297.5,253.833 297.5,253.5C 305.779,259.779 313.112,267.112 319.5,275.5C 311.982,268.307 304.649,261.307 297.5,254.5 Z"/></g>
<g><path style="opacity:1" fill="#c2b65c" d="M 285.5,242.5 C 285.5,251.167 285.5,259.833 285.5,268.5C 281.462,273.905 276.962,278.905 272,283.5C 270.775,283.138 269.609,282.638 268.5,282C 265.637,277.972 262.304,274.472 258.5,271.5C 259.552,271.649 260.552,271.483 261.5,271C 266.442,267.057 270.275,262.223 273,256.5C 278.672,252.725 282.839,248.058 285.5,242.5 Z"/></g>
<g><path style="opacity:1" fill="#e1b75f" d="M 285.5,268.5 C 286.497,286.659 286.83,304.992 286.5,323.5C 283.287,323.81 280.287,323.477 277.5,322.5C 280.167,322.5 282.833,322.5 285.5,322.5C 285.5,304.5 285.5,286.5 285.5,268.5 Z"/></g>
<g><path style="opacity:1" fill="#de6d69" d="M 170.5,279.5 C 174.219,284.45 176.386,290.116 177,296.5C 179.229,299.5 180.896,302.833 182,306.5C 189.004,315.666 196.171,324.666 203.5,333.5C 201.947,331.615 199.947,330.615 197.5,330.5C 197.509,328.692 197.009,327.025 196,325.5C 188.6,317.928 182.267,309.595 177,300.5C 172.928,294.117 170.762,287.117 170.5,279.5 Z"/></g>
<g><path style="opacity:1" fill="#efd267" d="M 237.5,306.5 C 242.207,307.754 246.207,310.087 249.5,313.5C 254.591,314.431 259.258,316.264 263.5,319C 265.833,319.333 268.167,319.667 270.5,320C 271.056,320.383 271.389,320.883 271.5,321.5C 259.215,320.182 248.215,315.849 238.5,308.5C 238.167,307.833 237.833,307.167 237.5,306.5 Z"/></g>
<g><path style="opacity:0.196" fill="#e6a7b7" d="M 141.5,318.5 C 142.376,318.369 143.043,318.702 143.5,319.5C 145.143,322.445 146.476,325.445 147.5,328.5C 145.012,325.534 143.012,322.201 141.5,318.5 Z"/></g>
<g><path style="opacity:1" fill="#b45368" d="M 365.5,320.5 C 370.801,321.972 373.801,325.472 374.5,331C 375.448,331.483 376.448,331.649 377.5,331.5C 377.238,332.978 377.571,334.311 378.5,335.5C 380.646,336.556 382.312,338.056 383.5,340C 378.308,344.694 372.975,349.194 367.5,353.5C 360.13,357.891 352.797,362.225 345.5,366.5C 337.019,369.434 328.352,371.934 319.5,374C 304.495,375.951 289.495,375.951 274.5,374C 260.156,370.44 246.489,365.107 233.5,358C 232.619,357.292 231.953,356.458 231.5,355.5C 238.953,356.919 246.286,358.585 253.5,360.5C 259.442,361.818 265.442,362.818 271.5,363.5C 283.993,364.66 296.66,364.827 309.5,364C 312.803,362.517 316.136,361.35 319.5,360.5C 319.5,360.167 319.5,359.833 319.5,359.5C 325.794,357.904 332.127,356.404 338.5,355C 340.24,353.483 341.906,351.983 343.5,350.5C 348.243,347.275 352.909,343.775 357.5,340C 362.86,337.644 367.36,334.144 371,329.5C 371.49,328.207 371.657,326.873 371.5,325.5C 368.474,325.163 366.474,323.496 365.5,320.5 Z"/></g>
<g><path style="opacity:1" fill="#bc5a60" d="M 203.5,333.5 C 205.783,333.608 207.783,334.441 209.5,336C 213.167,339.333 216.833,342.667 220.5,346C 226.207,347.903 231.54,350.57 236.5,354C 240.706,355.777 245.039,356.944 249.5,357.5C 250.59,358.857 251.924,359.857 253.5,360.5C 246.286,358.585 238.953,356.919 231.5,355.5C 229.02,353.897 226.354,352.397 223.5,351C 217.077,344.784 210.41,338.951 203.5,333.5 Z"/></g>
<g><path style="opacity:1" fill="#ed9857" d="M 319.5,358.5 C 319.5,358.833 319.5,359.167 319.5,359.5C 319.5,359.833 319.5,360.167 319.5,360.5C 303.608,362.978 287.608,363.978 271.5,363.5C 265.442,362.818 259.442,361.818 253.5,360.5C 251.924,359.857 250.59,358.857 249.5,357.5C 252.282,358.061 255.116,358.394 258,358.5C 266.358,356.455 274.858,355.455 283.5,355.5C 287.5,355.833 291.5,356.167 295.5,356.5C 293.608,357.473 291.608,358.14 289.5,358.5C 285.146,357.229 280.813,357.229 276.5,358.5C 275.289,359.274 275.289,360.107 276.5,361C 280.431,361.996 284.431,362.496 288.5,362.5C 298.903,361.219 309.236,359.886 319.5,358.5 Z"/></g>
<g><path style="opacity:1" fill="#c76d5b" d="M 343.5,350.5 C 341.906,351.983 340.24,353.483 338.5,355C 332.127,356.404 325.794,357.904 319.5,359.5C 319.5,359.167 319.5,358.833 319.5,358.5C 327.205,354.991 335.205,352.325 343.5,350.5 Z"/></g>
<g><path style="opacity:1" fill="#c4695d" d="M 319.5,360.5 C 316.136,361.35 312.803,362.517 309.5,364C 296.66,364.827 283.993,364.66 271.5,363.5C 287.608,363.978 303.608,362.978 319.5,360.5 Z"/></g>
<g><path style="opacity:0.906" fill="#faf9f9" d="M 450.5,242.5 C 459.086,245.848 462.419,252.181 460.5,261.5C 456.05,323.415 426.716,369.249 372.5,399C 327.61,420.882 281.61,423.215 234.5,406C 221.679,399.759 209.346,392.759 197.5,385C 194.629,382.751 192.629,379.918 191.5,376.5C 203.05,382.59 214.717,388.424 226.5,394C 232.539,396.734 238.872,398.567 245.5,399.5C 246.671,400.345 248.005,401.011 249.5,401.5C 256.105,402.808 256.105,404.308 249.5,406C 249.833,406.333 250.167,406.667 250.5,407C 260.701,406.83 271.034,406.83 281.5,407C 286.175,407.797 290.841,408.63 295.5,409.5C 298.458,411.44 301.624,413.107 305,414.5C 308.187,413.955 311.354,413.289 314.5,412.5C 310.833,411.833 307.167,411.167 303.5,410.5C 309.685,410.03 315.685,409.03 321.5,407.5C 325.708,410.623 329.374,410.123 332.5,406C 333.793,405.51 335.127,405.343 336.5,405.5C 336.5,404.167 336.5,402.833 336.5,401.5C 333.712,401.077 331.712,402.077 330.5,404.5C 325.869,405.662 321.202,405.828 316.5,405C 325.166,402.556 333.666,399.723 342,396.5C 344.549,397.519 347.049,397.519 349.5,396.5C 348.624,395.749 347.624,395.249 346.5,395C 349.523,394.46 351.856,392.96 353.5,390.5C 357.046,390.441 360.379,389.608 363.5,388C 363.167,387.667 362.833,387.333 362.5,387C 366.241,385.002 370.241,384.169 374.5,384.5C 374.5,383.167 374.5,381.833 374.5,380.5C 375.552,380.649 376.552,380.483 377.5,380C 378.833,379.333 378.833,378.667 377.5,378C 385.096,376.055 390.429,371.555 393.5,364.5C 421.256,338.672 438.923,307.006 446.5,269.5C 447.669,265.86 449.336,262.36 451.5,259C 450.527,253.593 450.193,248.093 450.5,242.5 Z"/></g>
<g><path style="opacity:1" fill="#fce6ec" d="M 393.5,364.5 C 390.429,371.555 385.096,376.055 377.5,378C 378.833,378.667 378.833,379.333 377.5,380C 376.552,380.483 375.552,380.649 374.5,380.5C 374.5,381.833 374.5,383.167 374.5,384.5C 370.241,384.169 366.241,385.002 362.5,387C 362.833,387.333 363.167,387.667 363.5,388C 360.379,389.608 357.046,390.441 353.5,390.5C 367.616,383.053 380.95,374.386 393.5,364.5 Z"/></g>
<g><path style="opacity:1" fill="#d4748c" d="M 245.5,399.5 C 270.015,403.047 294.682,403.38 319.5,400.5C 314.444,402.347 309.111,403.514 303.5,404C 290.167,404.667 276.833,404.667 263.5,404C 258.983,402.414 254.316,401.58 249.5,401.5C 248.005,401.011 246.671,400.345 245.5,399.5 Z"/></g>
<g><path style="opacity:1" fill="#fcf2f4" d="M 353.5,390.5 C 351.856,392.96 349.523,394.46 346.5,395C 347.624,395.249 348.624,395.749 349.5,396.5C 347.049,397.519 344.549,397.519 342,396.5C 333.666,399.723 325.166,402.556 316.5,405C 321.202,405.828 325.869,405.662 330.5,404.5C 331.712,402.077 333.712,401.077 336.5,401.5C 336.5,402.833 336.5,404.167 336.5,405.5C 335.127,405.343 333.793,405.51 332.5,406C 329.374,410.123 325.708,410.623 321.5,407.5C 315.685,409.03 309.685,410.03 303.5,410.5C 307.167,411.167 310.833,411.833 314.5,412.5C 311.354,413.289 308.187,413.955 305,414.5C 301.624,413.107 298.458,411.44 295.5,409.5C 290.841,408.63 286.175,407.797 281.5,407C 271.034,406.83 260.701,406.83 250.5,407C 250.167,406.667 249.833,406.333 249.5,406C 256.105,404.308 256.105,402.808 249.5,401.5C 254.316,401.58 258.983,402.414 263.5,404C 276.833,404.667 290.167,404.667 303.5,404C 309.111,403.514 314.444,402.347 319.5,400.5C 325.181,399.441 330.848,398.274 336.5,397C 342.073,394.532 347.74,392.365 353.5,390.5 Z"/></g>
</svg>
