<?xml version="1.0" encoding="UTF-8"?>
<!DOCTYPE svg PUBLIC "-//W3C//DTD SVG 1.1//EN" "http://www.w3.org/Graphics/SVG/1.1/DTD/svg11.dtd">
<svg xmlns="http://www.w3.org/2000/svg" version="1.1" width="798px" height="412px" style="shape-rendering:geometricPrecision; text-rendering:geometricPrecision; image-rendering:optimizeQuality; fill-rule:evenodd; clip-rule:evenodd" xmlns:xlink="http://www.w3.org/1999/xlink">
<g><path style="opacity:1" fill="#fefefe" d="M -0.5,-0.5 C 265.5,-0.5 531.5,-0.5 797.5,-0.5C 797.5,136.833 797.5,274.167 797.5,411.5C 531.5,411.5 265.5,411.5 -0.5,411.5C -0.5,274.167 -0.5,136.833 -0.5,-0.5 Z"/></g>
<g><path style="opacity:1" fill="#57cc2d" d="M 555.5,55.5 C 563.84,55.3336 572.173,55.5003 580.5,56C 583.25,66.9885 578.917,70.8218 567.5,67.5C 556.104,70.3207 552.104,66.3207 555.5,55.5 Z"/></g>
<g><path style="opacity:1" fill="#a4e580" d="M 569.5,59.5 C 571.823,60.0584 574.157,60.7251 576.5,61.5C 576.192,62.3081 575.692,62.9747 575,63.5C 572.853,62.8875 570.686,62.2208 568.5,61.5C 568.863,60.8165 569.196,60.1499 569.5,59.5 Z"/></g>
<g><path style="opacity:1" fill="#60cd28" d="M 477.5,67.5 C 475.585,67.7845 473.919,67.4511 472.5,66.5C 470.145,58.3588 472.478,56.5255 479.5,61C 477.987,62.8792 477.321,65.0459 477.5,67.5 Z"/></g>
<g><path style="opacity:1" fill="#cde786" d="M 477.5,67.5 C 477.321,65.0459 477.987,62.8792 479.5,61C 472.478,56.5255 470.145,58.3588 472.5,66.5C 468.88,63.5552 468.547,60.0552 471.5,56C 479.803,54.4751 482.636,57.6418 480,65.5C 479.292,66.3805 478.458,67.0472 477.5,67.5 Z"/></g>
<g><path style="opacity:1" fill="#83a96f" d="M 473.5,59.5 C 475.337,59.6395 475.67,60.3061 474.5,61.5C 473.702,61.0431 473.369,60.3764 473.5,59.5 Z"/></g>
<g><path style="opacity:1" fill="#92e068" d="M 560.5,59.5 C 562.924,59.1924 565.257,59.5258 567.5,60.5C 566.473,62.024 564.973,62.6906 563,62.5C 560.123,62.5627 559.289,61.5627 560.5,59.5 Z"/></g>
<g><path style="opacity:1" fill="#babcc2" d="M 459.5,58.5 C 461.167,58.5 462.833,58.5 464.5,58.5C 464.5,60.5 464.5,62.5 464.5,64.5C 462.833,64.5 461.167,64.5 459.5,64.5C 459.5,62.5 459.5,60.5 459.5,58.5 Z"/></g>
<g><path style="opacity:1" fill="#969aa2" d="M 485.5,58.5 C 490.226,61.0434 494.893,61.0434 499.5,58.5C 500.468,59.4891 501.635,60.1557 503,60.5C 506.234,59.6425 509.401,59.3092 512.5,59.5C 514.111,60.3202 514.778,61.6536 514.5,63.5C 504.828,63.6665 495.161,63.4998 485.5,63C 484.272,61.5098 484.272,60.0098 485.5,58.5 Z"/></g>
<g><path style="opacity:1" fill="#edeeef" d="M 453.5,123.5 C 451.266,123.62 449.099,123.287 447,122.5C 444.659,123.007 444.159,124.174 445.5,126C 448.146,126.497 450.813,126.664 453.5,126.5C 453.5,131.5 453.5,136.5 453.5,141.5C 452.167,141.5 450.833,141.5 449.5,141.5C 450.605,139.287 450.605,137.12 449.5,135C 418.833,134.333 418.833,133.667 449.5,133C 450.833,132 450.833,131 449.5,130C 445.049,129.87 440.716,129.204 436.5,128C 434.964,124.76 435.297,121.76 437.5,119C 441.821,118.501 446.154,118.334 450.5,118.5C 451.105,111.382 450.438,104.548 448.5,98C 450.766,94.4217 451.1,90.5883 449.5,86.5C 450.298,79.5496 450.798,72.5496 451,65.5C 451.29,63.9559 451.956,62.6226 453,61.5C 453.5,82.164 453.667,102.831 453.5,123.5 Z"/></g>
<g><path style="opacity:1" fill="#afb2b8" d="M 128.5,69.5 C 131.898,69.1796 135.232,69.513 138.5,70.5C 138.291,71.086 137.957,71.586 137.5,72C 134.518,72.498 131.518,72.6646 128.5,72.5C 128.5,71.5 128.5,70.5 128.5,69.5 Z"/></g>
<g><path style="opacity:1" fill="#c8ccd3" d="M 144.5,68.5 C 147.34,69.1204 150.174,69.7871 153,70.5C 159.259,69.5825 165.425,69.2491 171.5,69.5C 172.386,70.325 172.719,71.325 172.5,72.5C 162.706,73.6267 153.04,73.6267 143.5,72.5C 143.433,71.0413 143.766,69.7079 144.5,68.5 Z"/></g>
<g><path style="opacity:1" fill="#cacfd7" d="M 176.5,69.5 C 180.653,69.7361 184.987,69.7361 189.5,69.5C 189.5,70.5 189.5,71.5 189.5,72.5C 185.601,71.8171 181.601,71.6504 177.5,72C 176.748,71.3292 176.414,70.4959 176.5,69.5 Z"/></g>
<g><path style="opacity:1" fill="#a7e0bc" d="M 219.5,69.5 C 221.977,69.0508 223.977,69.7175 225.5,71.5C 223.902,71.6097 222.235,71.943 220.5,72.5C 219.614,71.675 219.281,70.675 219.5,69.5 Z"/></g>
<g><path style="opacity:1" fill="#9a9da5" d="M 246.5,69.5 C 248.669,70.0818 251.002,70.0818 253.5,69.5C 253.5,70.5 253.5,71.5 253.5,72.5C 251.167,72.5 248.833,72.5 246.5,72.5C 246.5,71.5 246.5,70.5 246.5,69.5 Z"/></g>
<g><path style="opacity:1" fill="#cdd1d7" d="M 303.5,68.5 C 305.591,68.3184 307.591,68.6518 309.5,69.5C 310.386,70.325 310.719,71.325 310.5,72.5C 300.954,72.3438 291.288,72.0105 281.5,71.5C 281.709,70.914 282.043,70.414 282.5,70C 289.679,69.8285 296.679,69.3285 303.5,68.5 Z"/></g>
<g><path style="opacity:1" fill="#b7b9bf" d="M 314.5,68.5 C 317.691,68.974 320.691,69.974 323.5,71.5C 320.037,72.3594 316.371,72.6927 312.5,72.5C 312.527,70.8007 313.194,69.4674 314.5,68.5 Z"/></g>
<g><path style="opacity:1" fill="#bdbfc4" d="M 324.5,68.5 C 330.154,69.0545 335.82,69.5545 341.5,70C 342.308,70.3076 342.975,70.8076 343.5,71.5C 337.448,72.3001 331.114,72.6334 324.5,72.5C 324.5,71.1667 324.5,69.8333 324.5,68.5 Z"/></g>
<g><path style="opacity:1" fill="#b2b5bb" d="M 360.5,69.5 C 365.5,69.5 370.5,69.5 375.5,69.5C 375.5,70.5 375.5,71.5 375.5,72.5C 370.5,72.5 365.5,72.5 360.5,72.5C 360.5,71.5 360.5,70.5 360.5,69.5 Z"/></g>
<g><path style="opacity:1" fill="#cccfd6" d="M 191.5,68.5 C 197.106,69.4069 202.773,69.7402 208.5,69.5C 208.5,70.5 208.5,71.5 208.5,72.5C 202.299,71.3657 196.299,71.3657 190.5,72.5C 190.433,71.0413 190.766,69.7079 191.5,68.5 Z"/></g>
<g><path style="opacity:1" fill="#a3a5ad" d="M 254.5,69.5 C 256.674,69.9202 258.674,69.9202 260.5,69.5C 261.386,70.325 261.719,71.325 261.5,72.5C 259.167,72.5 256.833,72.5 254.5,72.5C 254.5,71.5 254.5,70.5 254.5,69.5 Z"/></g>
<g><path style="opacity:1" fill="#b0e4c3" d="M 266.5,69.5 C 269.187,69.3359 271.854,69.5026 274.5,70C 274.957,70.414 275.291,70.914 275.5,71.5C 271.5,72.8333 267.5,72.8333 263.5,71.5C 264.602,70.8243 265.602,70.1577 266.5,69.5 Z"/></g>
<g><path style="opacity:1" fill="#eff3f8" d="M 460.5,70.5 C 500.168,70.3333 539.835,70.5 579.5,71C 580.833,75 580.833,79 579.5,83C 539.833,83.6667 500.167,83.6667 460.5,83C 459.197,78.834 459.197,74.6674 460.5,70.5 Z"/></g>
<g><path style="opacity:1" fill="#c7e47d" d="M 122.5,93.5 C 123.167,91.1667 123.833,88.8333 124.5,86.5C 122.5,86.5 120.5,86.5 118.5,86.5C 118.5,88.5 118.5,90.5 118.5,92.5C 114.605,89.6554 114.605,86.822 118.5,84C 124.057,82.1671 126.557,84.0004 126,89.5C 125.584,91.5503 124.417,92.8836 122.5,93.5 Z"/></g>
<g><path style="opacity:1" fill="#adafb6" d="M 130.5,85.5 C 138.443,85.3475 146.443,85.6808 154.5,86.5C 154.5,87.8333 154.5,89.1667 154.5,90.5C 146.167,90.5 137.833,90.5 129.5,90.5C 129.366,88.7085 129.699,87.0418 130.5,85.5 Z"/></g>
<g><path style="opacity:1" fill="#cbced3" d="M 234.5,87.5 C 229.489,87.3341 224.489,87.5007 219.5,88C 222.166,89.0605 224.833,89.8939 227.5,90.5C 222.167,90.5 216.833,90.5 211.5,90.5C 211.5,88.8333 211.5,87.1667 211.5,85.5C 219.312,86.0689 226.979,86.7356 234.5,87.5 Z"/></g>
<g><path style="opacity:1" fill="#9fa6af" d="M 245.5,86.5 C 248.167,86.5 250.833,86.5 253.5,86.5C 253.349,89.7181 252.516,90.0515 251,87.5C 248.442,90.3622 246.609,90.0289 245.5,86.5 Z"/></g>
<g><path style="opacity:1" fill="#d3ced3" d="M 404.5,89.5 C 402.956,89.7031 401.622,90.3698 400.5,91.5C 397.867,90.2178 397.867,88.8844 400.5,87.5C 399.128,85.3802 399.795,84.3802 402.5,84.5C 402.633,87.8957 403.633,88.2291 405.5,85.5C 409.82,86.1115 414.153,86.7782 418.5,87.5C 418.023,88.931 417.357,90.2643 416.5,91.5C 412.365,90.8909 408.365,90.2243 404.5,89.5 Z"/></g>
<g><path style="opacity:1" fill="#9ba1ab" d="M 195.5,86.5 C 197.977,86.0508 199.977,86.7175 201.5,88.5C 195.946,89.8059 190.446,89.8059 185,88.5C 179.799,89.3574 174.799,90.0241 170,90.5C 169.667,89.8333 169.333,89.1667 169,88.5C 167.506,89.7472 166.006,89.7472 164.5,88.5C 174.649,87.9059 184.982,87.2393 195.5,86.5 Z"/></g>
<g><path style="opacity:1" fill="#949ba6" d="M 234.5,87.5 C 232.793,89.0147 230.793,90.348 228.5,91.5C 227.893,91.3764 227.56,91.0431 227.5,90.5C 224.833,89.8939 222.166,89.0605 219.5,88C 224.489,87.5007 229.489,87.3341 234.5,87.5 Z"/></g>
<g><path style="opacity:1" fill="#9199a4" d="M 264.5,87.5 C 267.968,87.5355 271.634,87.7022 275.5,88C 273.712,89.0877 271.712,89.5877 269.5,89.5C 267.36,89.4439 265.694,88.7773 264.5,87.5 Z"/></g>
<g><path style="opacity:1" fill="#959ca7" d="M 286.5,85.5 C 292.81,87.5724 299.143,88.739 305.5,89C 299.327,89.3898 293.327,89.5564 287.5,89.5C 286.571,88.3112 286.238,86.9778 286.5,85.5 Z"/></g>
<g><path style="opacity:1" fill="#8f96a1" d="M 404.5,89.5 C 407.885,87.7549 411.552,87.2549 415.5,88C 412.042,89.4155 408.375,89.9155 404.5,89.5 Z"/></g>
<g><path style="opacity:1" fill="#949ba6" d="M 429.5,87.5 C 436.083,87.4267 442.416,87.7601 448.5,88.5C 443.566,89.0607 438.733,89.394 434,89.5C 432.014,89.4313 430.514,88.7647 429.5,87.5 Z"/></g>
<g><path style="opacity:1" fill="#56cb1f" d="M 122.5,93.5 C 121.041,93.5674 119.708,93.2341 118.5,92.5C 118.5,90.5 118.5,88.5 118.5,86.5C 120.5,86.5 122.5,86.5 124.5,86.5C 123.833,88.8333 123.167,91.1667 122.5,93.5 Z"/></g>
<g><path style="opacity:1" fill="#bdbfc4" d="M 485.5,90.5 C 490.214,90.1734 494.88,90.5067 499.5,91.5C 498.372,93.5563 496.538,94.5563 494,94.5C 492.019,94.3708 490.353,93.7042 489,92.5C 488.29,93.9733 487.124,94.6399 485.5,94.5C 485.5,93.1667 485.5,91.8333 485.5,90.5 Z"/></g>
<g><path style="opacity:1" fill="#a2dfb8" d="M 509.5,91.5 C 512.364,91.0642 514.697,91.8975 516.5,94C 514.865,94.5396 513.532,94.0396 512.5,92.5C 510.633,95.2291 509.633,94.8957 509.5,91.5 Z"/></g>
<g><path style="opacity:1" fill="#c6ccd4" d="M 459.5,91.5 C 464.214,91.1734 468.88,91.5067 473.5,92.5C 473.709,93.086 474.043,93.586 474.5,94C 469.497,93.1764 464.497,93.343 459.5,94.5C 459.5,93.5 459.5,92.5 459.5,91.5 Z"/></g>
<g><path style="opacity:1" fill="#c3c5ca" d="M 544.5,90.5 C 549.5,90.5 554.5,90.5 559.5,90.5C 559.5,92.1667 559.5,93.8333 559.5,95.5C 553.5,95.5 547.5,95.5 541.5,95.5C 541.238,94.0222 541.571,92.6888 542.5,91.5C 543.944,92.981 544.611,92.6477 544.5,90.5 Z"/></g>
<g><path style="opacity:1" fill="#d6f0de" d="M 568.5,89.5 C 570.717,90.3686 573.05,90.702 575.5,90.5C 575.48,92.143 576.147,93.4763 577.5,94.5C 571.712,95.192 566.045,95.5253 560.5,95.5C 560.33,94.1779 560.663,93.0113 561.5,92C 564.104,91.6097 566.438,90.7763 568.5,89.5 Z"/></g>
<g><path style="opacity:1" fill="#e4f9c5" d="M 493.5,103.5 C 511.833,103.5 530.167,103.5 548.5,103.5C 548.789,107.106 548.456,110.606 547.5,114C 529.833,114.667 512.167,114.667 494.5,114C 493.544,110.606 493.211,107.106 493.5,103.5 Z"/></g>
<g><path style="opacity:1" fill="#78c1ed" d="M 498.5,106.5 C 499.978,106.238 501.311,106.571 502.5,107.5C 501.081,109.915 499.415,110.081 497.5,108C 498.056,107.617 498.389,107.117 498.5,106.5 Z"/></g>
<g><path style="opacity:1" fill="#9bda73" d="M 504.5,106.5 C 509.746,106.873 514.912,107.54 520,108.5C 527.906,107.729 535.74,107.396 543.5,107.5C 543.5,108.5 543.5,109.5 543.5,110.5C 530.783,110.186 518.117,110.519 505.5,111.5C 503.296,110.218 502.962,108.551 504.5,106.5 Z"/></g>
<g><path style="opacity:1" fill="#abaaaa" d="M 244.5,106.5 C 247.5,106.833 249.167,108.5 249.5,111.5C 245.5,112.167 243.833,110.5 244.5,106.5 Z"/></g>
<g><path style="opacity:1" fill="#c1c8d1" d="M 225.5,107.5 C 228.417,108.291 231.25,108.291 234,107.5C 234.483,108.448 234.649,109.448 234.5,110.5C 229.901,111.35 225.235,111.017 220.5,109.5C 222.291,108.83 223.958,108.163 225.5,107.5 Z"/></g>
<g><path style="opacity:1" fill="#bcc3cd" d="M 250.5,107.5 C 269.079,108.804 269.079,110.138 250.5,111.5C 250.5,110.167 250.5,108.833 250.5,107.5 Z"/></g>
<g><path style="opacity:1" fill="#b4bbc7" d="M 265.5,107.5 C 268.137,108.113 270.97,108.113 274,107.5C 274.925,108.047 275.758,108.713 276.5,109.5C 272.893,110.489 269.226,110.823 265.5,110.5C 265.5,109.5 265.5,108.5 265.5,107.5 Z"/></g>
<g><path style="opacity:1" fill="#b7bfca" d="M 293.5,107.5 C 296.914,107.736 300.247,108.402 303.5,109.5C 300.185,110.312 297.019,110.646 294,110.5C 293.517,109.552 293.351,108.552 293.5,107.5 Z"/></g>
<g><path style="opacity:1" fill="#b8c0ca" d="M 461.5,105.5 C 463.132,106.446 464.799,107.446 466.5,108.5C 472.49,106.81 478.49,106.476 484.5,107.5C 484.5,108.5 484.5,109.5 484.5,110.5C 481.738,109.647 479.071,109.647 476.5,110.5C 475.006,110.291 473.839,109.624 473,108.5C 470.582,110.68 467.916,111.013 465,109.5C 462.786,112.308 461.286,111.975 460.5,108.5C 460.685,107.416 461.018,106.416 461.5,105.5 Z"/></g>
<g><path style="opacity:1" fill="#fae28d" d="M 560.5,107.5 C 561.376,107.369 562.043,107.702 562.5,108.5C 561.485,111.168 559.818,111.834 557.5,110.5C 558.993,109.859 559.993,108.859 560.5,107.5 Z"/></g>
<g><path style="opacity:1" fill="#cfd4db" d="M 120.5,107.5 C 127.15,107.717 133.817,108.05 140.5,108.5C 140.291,109.086 139.957,109.586 139.5,110C 135.84,110.547 132.173,111.047 128.5,111.5C 126.68,111.351 125.18,110.684 124,109.5C 122.374,112.066 120.874,111.899 119.5,109C 120.056,108.617 120.389,108.117 120.5,107.5 Z"/></g>
<g><path style="opacity:1" fill="#fbe9ac" d="M 204.5,107.5 C 206.984,109.292 206.484,110.625 203,111.5C 202.5,111.167 202,110.833 201.5,110.5C 202.993,109.859 203.993,108.859 204.5,107.5 Z"/></g>
<g><path style="opacity:1" fill="#cfd4db" d="M 311.5,106.5 C 313.143,106.48 314.476,107.147 315.5,108.5C 317.747,107.626 320.08,107.292 322.5,107.5C 322.5,108.833 322.5,110.167 322.5,111.5C 316.455,111.697 310.455,111.363 304.5,110.5C 304.5,109.5 304.5,108.5 304.5,107.5C 305.822,107.33 306.989,107.663 308,108.5C 309.302,107.915 310.469,107.249 311.5,106.5 Z"/></g>
<g><path style="opacity:1" fill="#e3f8c5" d="M 148.5,103.5 C 163.17,103.333 177.837,103.5 192.5,104C 194.758,106.725 195.091,109.725 193.5,113C 178.17,113.5 162.837,113.667 147.5,113.5C 147.342,110.098 147.676,106.764 148.5,103.5 Z"/></g>
<g><path style="opacity:1" fill="#9ada72" d="M 177.5,107.5 C 181.05,108.624 184.383,108.624 187.5,107.5C 188.5,107.833 189.167,108.5 189.5,109.5C 185.555,110.491 181.555,110.824 177.5,110.5C 177.5,109.5 177.5,108.5 177.5,107.5 Z"/></g>
<g><path style="opacity:1" fill="#97d86f" d="M 157.5,107.5 C 160.173,108.703 162.84,108.703 165.5,107.5C 168.303,109.425 171.303,109.425 174.5,107.5C 175.386,108.325 175.719,109.325 175.5,110.5C 169.649,110.951 163.649,110.951 157.5,110.5C 157.5,109.5 157.5,108.5 157.5,107.5 Z"/></g>
<g><path style="opacity:1" fill="#5db4f4" d="M 152.5,107.5 C 155.797,107.329 156.131,107.995 153.5,109.5C 152.702,109.043 152.369,108.376 152.5,107.5 Z"/></g>
<g><path style="opacity:1" fill="#e8ebee" d="M 403.5,119.5 C 413.5,119.5 423.5,119.5 433.5,119.5C 433.5,122.5 433.5,125.5 433.5,128.5C 423.5,128.5 413.5,128.5 403.5,128.5C 403.5,125.5 403.5,122.5 403.5,119.5 Z"/></g>
<g><path style="opacity:1" fill="#95d0f7" d="M 117.5,120.5 C 119.5,120.5 121.5,120.5 123.5,120.5C 122.229,126.874 119.896,127.541 116.5,122.5C 116.863,121.817 117.196,121.15 117.5,120.5 Z"/></g>
<g><path style="opacity:1" fill="#72787f" d="M 156.5,121.5 C 158.308,122.918 158.975,124.918 158.5,127.5C 157.167,127.5 155.833,127.5 154.5,127.5C 154.259,125.114 154.925,123.114 156.5,121.5 Z"/></g>
<g><path style="opacity:1" fill="#626770" d="M 170.5,122.5 C 171.833,122.5 173.167,122.5 174.5,122.5C 174.543,126.893 174.043,127.226 173,123.5C 171.506,127.304 170.672,126.971 170.5,122.5 Z"/></g>
<g><path style="opacity:1" fill="#87c8f6" d="M 460.5,120.5 C 461.5,120.5 462.5,120.5 463.5,120.5C 463.5,121.833 463.5,123.167 463.5,124.5C 460.046,124.733 459.046,123.4 460.5,120.5 Z"/></g>
<g><path style="opacity:1" fill="#747984" d="M 489.5,121.5 C 491.451,121.227 492.951,121.893 494,123.5C 497.938,122.046 501.771,122.212 505.5,124C 500.15,123.163 494.984,123.33 490,124.5C 489.517,123.552 489.351,122.552 489.5,121.5 Z"/></g>
<g><path style="opacity:1" fill="#90949b" d="M 143.5,123.5 C 142.206,127.223 141.039,127.223 140,123.5C 139.51,124.793 139.343,126.127 139.5,127.5C 135.039,127.223 130.706,127.056 126.5,127C 125.577,124.959 125.244,122.792 125.5,120.5C 131.452,121.087 137.452,122.087 143.5,123.5 Z"/></g>
<g><path style="opacity:1" fill="#868a93" d="M 465.5,120.5 C 472.728,122.66 480.061,122.993 487.5,121.5C 488.386,122.325 488.719,123.325 488.5,124.5C 485.552,124.223 482.719,124.556 480,125.5C 475.762,125.129 471.762,124.129 468,122.5C 467.692,123.308 467.192,123.975 466.5,124.5C 465.571,123.311 465.238,121.978 465.5,120.5 Z"/></g>
<g><path style="opacity:1" fill="#a0a4ac" d="M 541.5,120.5 C 542.833,120.5 544.167,120.5 545.5,120.5C 546.967,124.866 545.467,126.532 541,125.5C 540.36,123.735 540.527,122.068 541.5,120.5 Z"/></g>
<g><path style="opacity:1" fill="#999ea6" d="M 575.5,120.5 C 576.376,120.369 577.043,120.702 577.5,121.5C 576.754,122.736 576.421,124.07 576.5,125.5C 575.167,125.5 573.833,125.5 572.5,125.5C 572.343,124.127 572.51,122.793 573,121.5C 574.007,123.742 574.841,123.408 575.5,120.5 Z"/></g>
<g><path style="opacity:1" fill="#6d727b" d="M 160.5,121.5 C 161.735,121.721 162.735,122.388 163.5,123.5C 164.192,122.975 164.692,122.308 165,121.5C 165.57,124.844 166.736,125.177 168.5,122.5C 169.745,128.391 168.078,129.057 163.5,124.5C 162.522,124.977 161.689,125.643 161,126.5C 160.506,124.866 160.34,123.199 160.5,121.5 Z"/></g>
<g><path style="opacity:1" fill="#abb3bc" d="M 189.5,122.5 C 193.647,122.282 197.647,122.615 201.5,123.5C 197.843,125.041 194.01,126.041 190,126.5C 189.51,125.207 189.343,123.873 189.5,122.5 Z"/></g>
<g><path style="opacity:1" fill="#9599a3" d="M 411.5,122.5 C 416.853,122.908 422.02,122.908 427,122.5C 428.662,122.388 429.829,123.054 430.5,124.5C 428.308,124.927 425.808,125.594 423,126.5C 422.333,125.833 421.667,125.167 421,124.5C 417.943,125.451 414.777,125.784 411.5,125.5C 411.5,124.5 411.5,123.5 411.5,122.5 Z"/></g>
<g><path style="opacity:1" fill="#969aa2" d="M 439.5,122.5 C 440.873,122.343 442.207,122.51 443.5,123C 442.359,123.741 442.359,124.575 443.5,125.5C 440.943,126.534 439.609,125.534 439.5,122.5 Z"/></g>
<g><path style="opacity:1" fill="#a6aab1" d="M 453.5,123.5 C 453.5,124.5 453.5,125.5 453.5,126.5C 450.813,126.664 448.146,126.497 445.5,126C 444.159,124.174 444.659,123.007 447,122.5C 449.099,123.287 451.266,123.62 453.5,123.5 Z"/></g>
<g><path style="opacity:1" fill="#9da1a9" d="M 556.5,120.5 C 558.288,120.215 559.955,120.548 561.5,121.5C 560.529,122.962 560.862,124.295 562.5,125.5C 560.257,126.474 557.924,126.808 555.5,126.5C 555.833,124.5 556.167,122.5 556.5,120.5 Z"/></g>
<g><path style="opacity:1" fill="#82868d" d="M 143.5,123.5 C 146.884,123.263 150.218,122.93 153.5,122.5C 153.328,126.971 152.494,127.304 151,123.5C 149.986,127.091 147.82,128.091 144.5,126.5C 143.614,125.675 143.281,124.675 143.5,123.5 Z"/></g>
<g><path style="opacity:1" fill="#7a7f87" d="M 178.5,121.5 C 179.222,121.918 179.722,122.584 180,123.5C 181.049,122.483 182.216,122.316 183.5,123C 183.034,124.299 183.034,125.799 183.5,127.5C 181.876,127.64 180.71,126.973 180,125.5C 178.951,127.107 177.451,127.773 175.5,127.5C 175.5,125.833 175.5,124.167 175.5,122.5C 176.791,122.737 177.791,122.404 178.5,121.5 Z"/></g>
<g><path style="opacity:1" fill="#8d919a" d="M 486.5,143.5 C 484.544,145.148 482.211,145.815 479.5,145.5C 479.5,144.167 479.5,142.833 479.5,141.5C 480.313,140.347 481.313,140.347 482.5,141.5C 484.378,138.852 486.045,139.019 487.5,142C 487.43,142.765 487.097,143.265 486.5,143.5 Z"/></g>
<g><path style="opacity:1" fill="#8dd7a7" d="M 343.5,146.5 C 343.34,144.801 343.506,143.134 344,141.5C 344.149,144.279 344.983,144.779 346.5,143C 345.288,141.893 345.621,141.393 347.5,141.5C 350.418,140.241 351.918,141.241 352,144.5C 349.519,146.314 346.685,146.98 343.5,146.5 Z"/></g>
<g><path style="opacity:1" fill="#7e818b" d="M 122.5,140.5 C 123.376,140.369 124.043,140.702 124.5,141.5C 123.948,143.003 123.948,144.669 124.5,146.5C 123.325,146.719 122.325,146.386 121.5,145.5C 121.579,143.872 121.912,142.205 122.5,140.5 Z"/></g>
<g><path style="opacity:1" fill="#92d9ab" d="M 330.5,140.5 C 331.5,140.5 332.5,140.5 333.5,140.5C 333.5,142.5 333.5,144.5 333.5,146.5C 332.5,146.5 331.5,146.5 330.5,146.5C 330.5,144.5 330.5,142.5 330.5,140.5 Z"/></g>
<g><path style="opacity:1" fill="#a4aab3" d="M 449.5,141.5 C 450.833,141.5 452.167,141.5 453.5,141.5C 453.5,142.5 453.5,143.5 453.5,144.5C 448.833,144.5 444.167,144.5 439.5,144.5C 439.5,143.5 439.5,142.5 439.5,141.5C 442.833,141.5 446.167,141.5 449.5,141.5 Z"/></g>
<g><path style="opacity:1" fill="#9c9fa6" d="M 479.5,141.5 C 479.5,142.833 479.5,144.167 479.5,145.5C 482.211,145.815 484.544,145.148 486.5,143.5C 487.209,144.404 488.209,144.737 489.5,144.5C 490.833,144.5 492.167,144.5 493.5,144.5C 490.114,145.97 486.447,146.637 482.5,146.5C 479.911,146.473 477.411,146.139 475,145.5C 471.65,148.207 469.983,147.207 470,142.5C 469.55,145.106 468.05,146.439 465.5,146.5C 464.245,140.082 466.578,138.082 472.5,140.5C 472.238,141.978 472.571,143.311 473.5,144.5C 473.975,139.626 475.975,138.626 479.5,141.5 Z"/></g>
<g><path style="opacity:1" fill="#7a7e87" d="M 493.5,144.5 C 492.167,144.5 490.833,144.5 489.5,144.5C 489.525,141.821 490.858,140.488 493.5,140.5C 493.5,141.833 493.5,143.167 493.5,144.5 Z"/></g>
<g><path style="opacity:1" fill="#aeb1b7" d="M 125.5,140.5 C 126.943,141.335 127.943,142.668 128.5,144.5C 129.148,142.851 130.148,141.518 131.5,140.5C 133.987,140.782 136.653,140.782 139.5,140.5C 139.863,145.515 141.197,145.682 143.5,141C 146.482,140.502 149.482,140.335 152.5,140.5C 152.5,142.5 152.5,144.5 152.5,146.5C 148.383,145.863 144.216,146.196 140,147.5C 135.704,145.514 131.538,145.514 127.5,147.5C 126.914,147.291 126.414,146.957 126,146.5C 125.505,144.527 125.338,142.527 125.5,140.5 Z"/></g>
<g><path style="opacity:1" fill="#6ccc8f" d="M 327.5,142.5 C 329.337,142.639 329.67,143.306 328.5,144.5C 327.702,144.043 327.369,143.376 327.5,142.5 Z"/></g>
<g><path style="opacity:1" fill="#7ed199" d="M 334.5,141.5 C 336.074,141.937 337.241,142.937 338,144.5C 338.741,143.359 339.575,143.359 340.5,144.5C 341.773,145.257 341.773,145.923 340.5,146.5C 338.518,146.005 336.518,145.505 334.5,145C 335.171,144.014 335.171,142.847 334.5,141.5 Z"/></g>
<g><path style="opacity:1" fill="#90949c" d="M 499.5,139.5 C 500.87,139.856 501.87,140.69 502.5,142C 501.852,143.44 501.519,144.94 501.5,146.5C 499.416,145.752 497.416,145.752 495.5,146.5C 494.167,144.5 494.167,142.5 495.5,140.5C 496.275,142.475 497.609,143.309 499.5,143C 498.316,141.855 498.316,140.688 499.5,139.5 Z"/></g>
<g><path style="opacity:1" fill="#a1a4ab" d="M 228.5,140.5 C 230.5,140.5 232.5,140.5 234.5,140.5C 234.5,142.5 234.5,144.5 234.5,146.5C 232.396,146.799 230.396,146.466 228.5,145.5C 229.506,144.604 229.506,143.938 228.5,143.5C 227.109,144.645 225.776,144.645 224.5,143.5C 226.184,142.85 227.517,141.85 228.5,140.5 Z"/></g>
<g><path style="opacity:1" fill="#90949d" d="M 235.5,140.5 C 237.331,141.052 238.997,141.052 240.5,140.5C 241.752,142.001 242.752,143.668 243.5,145.5C 241.286,145.957 239.286,145.957 237.5,145.5C 236.05,144.15 235.383,142.484 235.5,140.5 Z"/></g>
<g><path style="opacity:1" fill="#abadb4" d="M 244.5,140.5 C 247.372,140.804 250.039,140.971 252.5,141C 253.406,142.699 253.739,144.533 253.5,146.5C 250.428,146.817 247.428,146.484 244.5,145.5C 245.535,143.872 245.535,142.205 244.5,140.5 Z"/></g>
<g><path style="opacity:1" fill="#faa956" d="M 431.5,138.5 C 436.668,139.339 437.668,141.839 434.5,146C 432.866,146.494 431.199,146.66 429.5,146.5C 429.132,143.467 429.798,140.8 431.5,138.5 Z"/></g>
<g><path style="opacity:1" fill="#cbedd7" d="M 334.5,141.5 C 338.833,140.167 343.167,140.167 347.5,141.5C 345.621,141.393 345.288,141.893 346.5,143C 344.983,144.779 344.149,144.279 344,141.5C 343.506,143.134 343.34,144.801 343.5,146.5C 342.348,147.625 341.348,147.625 340.5,146.5C 341.773,145.923 341.773,145.257 340.5,144.5C 339.575,143.359 338.741,143.359 338,144.5C 337.241,142.937 336.074,141.937 334.5,141.5 Z"/></g>
<g><path style="opacity:1" fill="#c8ced6" d="M 450.5,150.5 C 452.028,150.517 452.528,151.184 452,152.5C 450.989,153.337 449.822,153.67 448.5,153.5C 442.012,153.832 435.679,153.832 429.5,153.5C 429.279,148.938 430.779,148.272 434,151.5C 436.124,150.773 438.291,150.106 440.5,149.5C 443.758,150.417 447.091,150.751 450.5,150.5 Z"/></g>
<g><path style="opacity:1" fill="#b6bec9" d="M 121.5,151.5 C 126.875,151.172 132.208,151.505 137.5,152.5C 133.236,153.089 129.07,153.422 125,153.5C 123.319,153.392 122.152,152.725 121.5,151.5 Z"/></g>
<g><path style="opacity:1" fill="#b1b8c4" d="M 139.5,150.5 C 144.784,151.122 150.117,151.789 155.5,152.5C 151.752,152.909 148.086,153.242 144.5,153.5C 143.167,153.333 141.833,153.167 140.5,153C 139.748,152.329 139.414,151.496 139.5,150.5 Z"/></g>
<g><path style="opacity:1" fill="#87d5a2" d="M 274.5,150.5 C 276.351,150.649 278.184,150.649 280,150.5C 281.255,151.211 282.421,152.044 283.5,153C 280.638,152.917 277.638,153.084 274.5,153.5C 274.5,152.5 274.5,151.5 274.5,150.5 Z"/></g>
<g><path style="opacity:1" fill="#c4cad3" d="M 326.5,149.5 C 330.399,149.965 334.233,150.632 338,151.5C 342.586,150.619 347.086,150.286 351.5,150.5C 354.503,151.085 357.503,151.752 360.5,152.5C 358.659,153.23 356.825,153.897 355,154.5C 351.437,154.04 347.77,154.04 344,154.5C 342.667,153.833 341.333,153.167 340,152.5C 335.666,154.761 331.166,155.094 326.5,153.5C 326.5,152.167 326.5,150.833 326.5,149.5 Z"/></g>
<g><path style="opacity:1" fill="#c6cbd4" d="M 465.5,150.5 C 471.789,151.372 478.122,151.705 484.5,151.5C 484.5,152.833 484.5,154.167 484.5,155.5C 480.649,156.029 477.149,155.362 474,153.5C 473.481,154.516 472.647,155.182 471.5,155.5C 469.94,154.393 468.44,154.393 467,155.5C 464.566,154.284 464.066,152.617 465.5,150.5 Z"/></g>
<g><path style="opacity:1" fill="#aeb7c3" d="M 485.5,150.5 C 491.965,151.24 498.631,152.24 505.5,153.5C 498.866,154.497 492.2,154.83 485.5,154.5C 485.5,153.167 485.5,151.833 485.5,150.5 Z"/></g>
<g><path style="opacity:1" fill="#c2c9d2" d="M 224.5,149.5 C 231.001,150.148 237.501,150.815 244,151.5C 247.457,152.142 250.79,151.476 254,149.5C 258.737,150.469 263.57,150.803 268.5,150.5C 268.5,151.5 268.5,152.5 268.5,153.5C 253.991,153.754 239.491,153.754 225,153.5C 224.51,152.207 224.343,150.873 224.5,149.5 Z"/></g>
<g><path style="opacity:1" fill="#bae7ca" d="M 366.5,149.5 C 369.187,149.336 371.854,149.503 374.5,150C 377.538,153.196 377.038,154.03 373,152.5C 372.161,153.624 370.994,154.291 369.5,154.5C 367.182,154.003 364.848,153.67 362.5,153.5C 362.5,152.5 362.5,151.5 362.5,150.5C 364.099,150.768 365.432,150.434 366.5,149.5 Z"/></g>
<g><path style="opacity:1" fill="#ebeef0" d="M 439.5,144.5 C 444.167,144.5 448.833,144.5 453.5,144.5C 453.5,164.5 453.5,184.5 453.5,204.5C 452.5,204.5 451.5,204.5 450.5,204.5C 450.381,196.387 450.215,188.387 450,180.5C 438.91,179.678 427.743,179.178 416.5,179C 416.167,178.667 415.833,178.333 415.5,178C 416.991,175.903 417.991,173.57 418.5,171C 421.314,170.968 423.98,171.468 426.5,172.5C 424.131,172.798 421.798,172.798 419.5,172.5C 418.614,173.325 418.281,174.325 418.5,175.5C 421.495,175.706 424.162,175.04 426.5,173.5C 427.774,174.189 427.774,175.023 426.5,176C 427.448,176.483 428.448,176.649 429.5,176.5C 429.768,173.881 429.435,171.381 428.5,169C 435.833,168.667 443.167,168.333 450.5,168C 451.467,163.599 451.8,159.099 451.5,154.5C 450.209,154.737 449.209,154.404 448.5,153.5C 449.822,153.67 450.989,153.337 452,152.5C 452.528,151.184 452.028,150.517 450.5,150.5C 450.5,148.833 450.5,147.167 450.5,145.5C 446.629,145.815 442.962,145.482 439.5,144.5 Z"/></g>
<g><path style="opacity:1" fill="#636773" d="M 148.5,171.5 C 148.5,172.5 148.5,173.5 148.5,174.5C 147.5,174.5 146.5,174.5 145.5,174.5C 145.5,173.5 145.5,172.5 145.5,171.5C 146.5,171.5 147.5,171.5 148.5,171.5 Z"/></g>
<g><path style="opacity:1" fill="#83868f" d="M 326.5,169.5 C 329.118,169.779 331.618,170.446 334,171.5C 335.441,170.74 336.941,170.074 338.5,169.5C 348.108,171.017 357.441,171.351 366.5,170.5C 366.5,171.833 366.5,173.167 366.5,174.5C 362.029,173.889 357.696,173.889 353.5,174.5C 351.359,174.387 349.525,173.72 348,172.5C 347,175.167 346,175.167 345,172.5C 343,175.167 341,175.167 339,172.5C 338.374,174.991 337.541,174.991 336.5,172.5C 335.808,173.025 335.308,173.692 335,174.5C 334.15,173.576 333.15,173.576 332,174.5C 331.055,174.095 330.388,173.428 330,172.5C 329.311,173.357 328.478,174.023 327.5,174.5C 326.548,172.955 326.215,171.288 326.5,169.5 Z"/></g>
<g><path style="opacity:1" fill="#838790" d="M 137.5,170.5 C 137.5,171.833 137.5,173.167 137.5,174.5C 135.5,174.5 133.5,174.5 131.5,174.5C 128.606,174.958 126.106,174.291 124,172.5C 123.692,173.308 123.192,173.975 122.5,174.5C 121.167,172.833 121.167,171.167 122.5,169.5C 127.461,169.645 132.461,169.978 137.5,170.5 Z"/></g>
<g><path style="opacity:1" fill="#c0c2c7" d="M 137.5,170.5 C 141.371,170.185 145.038,170.518 148.5,171.5C 147.5,171.5 146.5,171.5 145.5,171.5C 145.5,172.5 145.5,173.5 145.5,174.5C 146.5,174.5 147.5,174.5 148.5,174.5C 147.432,175.434 146.099,175.768 144.5,175.5C 144.265,176.097 143.765,176.43 143,176.5C 139.015,175.928 135.182,175.261 131.5,174.5C 133.5,174.5 135.5,174.5 137.5,174.5C 137.5,173.167 137.5,171.833 137.5,170.5 Z"/></g>
<g><path style="opacity:1" fill="#696d79" d="M 144.5,175.5 C 143.265,175.279 142.265,174.612 141.5,173.5C 139.786,174.609 139.119,173.942 139.5,171.5C 141.167,171.5 142.833,171.5 144.5,171.5C 144.5,172.833 144.5,174.167 144.5,175.5 Z"/></g>
<g><path style="opacity:1" fill="#a4a7ae" d="M 426.5,172.5 C 426.5,172.833 426.5,173.167 426.5,173.5C 424.162,175.04 421.495,175.706 418.5,175.5C 418.281,174.325 418.614,173.325 419.5,172.5C 421.798,172.798 424.131,172.798 426.5,172.5 Z"/></g>
<g><path style="opacity:1" fill="#b4bbc4" d="M 444.5,171.5 C 447.167,171.5 449.833,171.5 452.5,171.5C 452.5,172.833 452.5,174.167 452.5,175.5C 450.076,175.808 447.743,175.474 445.5,174.5C 444.873,173.583 444.539,172.583 444.5,171.5 Z"/></g>
<g><path style="opacity:1" fill="#93969f" d="M 469.5,174.5 C 470.833,174.5 472.167,174.5 473.5,174.5C 473.281,175.675 473.614,176.675 474.5,177.5C 475.506,177.062 475.506,176.396 474.5,175.5C 475.667,175.167 476.833,174.833 478,174.5C 480.865,175.551 483.698,175.718 486.5,175C 487.858,176.832 488.192,178.665 487.5,180.5C 482.968,179.86 478.468,179.194 474,178.5C 471.978,179.991 470.312,179.658 469,177.5C 467.455,178.821 466.289,178.488 465.5,176.5C 466.949,175.828 468.282,175.161 469.5,174.5 Z"/></g>
<g><path style="opacity:1" fill="#9599a1" d="M 489.5,175.5 C 492.625,174.521 495.958,174.187 499.5,174.5C 500.17,177.59 499.003,179.257 496,179.5C 493.883,178.623 491.716,178.456 489.5,179C 490.791,177.708 490.791,176.542 489.5,175.5 Z"/></g>
<g><path style="opacity:1" fill="#aee68d" d="M 604.5,181.5 C 600.102,181.294 595.768,181.627 591.5,182.5C 591.611,181.883 591.944,181.383 592.5,181C 596.689,180.188 600.689,180.355 604.5,181.5 Z"/></g>
<g><path style="opacity:1" fill="#51ca12" d="M 604.5,181.5 C 607.081,182.488 609.748,183.488 612.5,184.5C 611.319,192.223 614.319,194.89 621.5,192.5C 621.833,192.5 622.167,192.5 622.5,192.5C 622.03,199.194 625.03,202.36 631.5,202C 634.734,199.314 636.4,195.814 636.5,191.5C 637.941,192.865 639.274,194.365 640.5,196C 643.181,196.664 645.515,195.997 647.5,194C 647.915,191.974 648.915,190.474 650.5,189.5C 655.805,190.903 660.639,193.236 665,196.5C 670.416,203.644 676.083,210.644 682,217.5C 684.852,223.355 685.185,229.355 683,235.5C 672.858,248.495 659.691,256.828 643.5,260.5C 640.848,260.41 638.515,261.076 636.5,262.5C 633.012,262.54 629.679,263.207 626.5,264.5C 623.848,264.41 621.515,265.076 619.5,266.5C 614.619,268.918 612.286,272.918 612.5,278.5C 616.259,279.908 619.925,279.742 623.5,278C 628.868,275.298 632.868,271.298 635.5,266C 638.033,265.148 640.033,265.814 641.5,268C 644.226,268.182 646.893,268.682 649.5,269.5C 650.068,272.31 650.401,274.976 650.5,277.5C 650.662,279.527 650.495,281.527 650,283.5C 648.052,284.109 646.218,284.776 644.5,285.5C 639.37,289.237 634.036,292.737 628.5,296C 621.866,297.78 615.2,297.947 608.5,296.5C 607.963,305.582 605.13,313.915 600,321.5C 599.07,330.555 596.903,339.221 593.5,347.5C 591.283,348.369 588.95,348.702 586.5,348.5C 586.333,334.163 586.5,319.829 587,305.5C 588,304.5 589,303.5 590,302.5C 592.247,296.845 593.747,291.012 594.5,285C 595.073,279.3 592.74,275.467 587.5,273.5C 586.622,268.913 588.122,265.58 592,263.5C 592.238,259.152 591.905,254.819 591,250.5C 590.311,249.643 589.478,248.977 588.5,248.5C 587.5,226.844 587.167,205.177 587.5,183.5C 588.708,182.766 590.041,182.433 591.5,182.5C 595.768,181.627 600.102,181.294 604.5,181.5 Z"/></g>
<g><path style="opacity:1" fill="#90d2a0" d="M 520.5,185.5 C 521.5,185.5 522.5,185.5 523.5,185.5C 523.5,186.5 523.5,187.5 523.5,188.5C 522.5,188.5 521.5,188.5 520.5,188.5C 520.5,187.5 520.5,186.5 520.5,185.5 Z"/></g>
<g><path style="opacity:1" fill="#4e9f3d" d="M 612.5,184.5 C 615.77,186.951 618.77,189.618 621.5,192.5C 614.319,194.89 611.319,192.223 612.5,184.5 Z"/></g>
<g><path style="opacity:1" fill="#bac1cb" d="M 465.5,184.5 C 467.017,184.511 468.184,185.177 469,186.5C 470.067,184.717 471.567,184.217 473.5,185C 474.337,186.011 474.67,187.178 474.5,188.5C 471.455,188.508 468.455,188.841 465.5,189.5C 465.5,187.833 465.5,186.167 465.5,184.5 Z"/></g>
<g><path style="opacity:1" fill="#c1c7d0" d="M 486.5,184.5 C 487.75,184.577 488.583,185.244 489,186.5C 491.954,184.029 494.954,184.029 498,186.5C 500.854,183.984 503.521,184.317 506,187.5C 509.786,186.205 513.62,186.205 517.5,187.5C 516.675,188.386 515.675,188.719 514.5,188.5C 514.506,191.548 513.506,192.048 511.5,190C 507.113,189.774 502.779,189.274 498.5,188.5C 492.642,188.857 486.975,189.191 481.5,189.5C 480.522,189.023 479.689,188.357 479,187.5C 476.871,188.863 476.371,188.529 477.5,186.5C 480.642,185.833 483.642,185.166 486.5,184.5 Z"/></g>
<g><path style="opacity:1" fill="#8cd7a6" d="M 525.5,185.5 C 527.841,185.515 530.174,185.515 532.5,185.5C 533.91,185.868 534.91,186.701 535.5,188C 532.26,187.735 528.927,187.902 525.5,188.5C 525.5,187.5 525.5,186.5 525.5,185.5 Z"/></g>
<g><path style="opacity:1" fill="#c2e9aa" d="M 598.5,194.5 C 601.012,193.133 603.345,193.466 605.5,195.5C 603.833,195.5 602.167,195.5 600.5,195.5C 600.158,194.662 599.492,194.328 598.5,194.5 Z"/></g>
<g><path style="opacity:1" fill="#4b9d3b" d="M 650.5,189.5 C 648.915,190.474 647.915,191.974 647.5,194C 645.515,195.997 643.181,196.664 640.5,196C 639.274,194.365 637.941,192.865 636.5,191.5C 636.4,195.814 634.734,199.314 631.5,202C 625.03,202.36 622.03,199.194 622.5,192.5C 624.243,193.086 626.076,193.419 628,193.5C 632.691,191.786 637.525,190.286 642.5,189C 645.367,188.199 648.034,188.366 650.5,189.5 Z"/></g>
<g><path style="opacity:1" fill="#dc5f7e" d="M 174.5,194.5 C 175.833,194.5 177.167,194.5 178.5,194.5C 178.5,198.5 178.5,202.5 178.5,206.5C 170.172,206.823 164.506,210.823 161.5,218.5C 160.833,219.5 160.167,220.5 159.5,221.5C 155.681,221.586 152.015,220.919 148.5,219.5C 151.27,205.064 159.937,196.731 174.5,194.5 Z"/></g>
<g><path style="opacity:1" fill="#d6a7ba" d="M 174.5,194.5 C 176.167,193.167 177.833,193.167 179.5,194.5C 179.5,198.5 179.5,202.5 179.5,206.5C 179.167,206.5 178.833,206.5 178.5,206.5C 178.5,202.5 178.5,198.5 178.5,194.5C 177.167,194.5 175.833,194.5 174.5,194.5 Z"/></g>
<g><path style="opacity:1" fill="#c3cddd" d="M 179.5,194.5 C 181.167,194.5 182.833,194.5 184.5,194.5C 182.945,198.798 182.612,203.131 183.5,207.5C 182.25,207.423 181.417,206.756 181,205.5C 180.617,206.056 180.117,206.389 179.5,206.5C 179.5,202.5 179.5,198.5 179.5,194.5 Z"/></g>
<g><path style="opacity:1" fill="#325d1b" d="M 598.5,194.5 C 599.492,194.328 600.158,194.662 600.5,195.5C 598.435,195.517 596.435,195.85 594.5,196.5C 595.287,194.896 596.62,194.229 598.5,194.5 Z"/></g>
<g><path style="opacity:1" fill="#1e368b" d="M 184.5,194.5 C 187.743,194.914 190.743,195.914 193.5,197.5C 192.128,201.249 190.461,204.915 188.5,208.5C 186.883,207.962 185.216,207.629 183.5,207.5C 182.612,203.131 182.945,198.798 184.5,194.5 Z"/></g>
<g><path style="opacity:1" fill="#0b0e08" d="M 600.5,195.5 C 602.654,196.824 604.321,198.657 605.5,201C 604.711,202.626 603.711,204.126 602.5,205.5C 606.647,209.737 605.98,213.071 600.5,215.5C 599.167,215.167 597.833,214.833 596.5,214.5C 590.886,209.085 590.219,203.085 594.5,196.5C 596.435,195.85 598.435,195.517 600.5,195.5 Z"/></g>
<g><path style="opacity:1" fill="#edf1eb" d="M 600.5,195.5 C 602.167,195.5 603.833,195.5 605.5,195.5C 611.08,198.97 612.913,203.97 611,210.5C 609.084,215.245 605.584,217.245 600.5,216.5C 600.5,216.167 600.5,215.833 600.5,215.5C 605.98,213.071 606.647,209.737 602.5,205.5C 603.711,204.126 604.711,202.626 605.5,201C 604.321,198.657 602.654,196.824 600.5,195.5 Z"/></g>
<g><path style="opacity:1" fill="#e27690" d="M 225.5,197.5 C 226.5,197.5 227.5,197.5 228.5,197.5C 228.5,198.5 228.5,199.5 228.5,200.5C 227.5,200.5 226.5,200.5 225.5,200.5C 225.5,199.5 225.5,198.5 225.5,197.5 Z"/></g>
<g><path style="opacity:1" fill="#989ba3" d="M 277.5,197.5 C 280.83,197.132 284.163,197.632 287.5,199C 285.049,198.727 282.549,199.227 280,200.5C 278.583,199.922 277.75,198.922 277.5,197.5 Z"/></g>
<g><path style="opacity:1" fill="#5aacdd" d="M 193.5,197.5 C 194.882,198.801 196.548,199.634 198.5,200C 201.759,202.434 204.092,205.601 205.5,209.5C 202.386,211.965 199.053,213.965 195.5,215.5C 192.973,213.395 190.64,211.061 188.5,208.5C 190.461,204.915 192.128,201.249 193.5,197.5 Z"/></g>
<g><path style="opacity:1" fill="#82d19a" d="M 429.5,201.5 C 428.162,205.501 425.829,208.835 422.5,211.5C 421.544,210.135 420.878,208.635 420.5,207C 420.836,205.97 421.503,205.47 422.5,205.5C 422.706,207.549 423.539,207.883 425,206.5C 425.182,203.774 425.682,201.107 426.5,198.5C 427.548,199.548 428.548,200.548 429.5,201.5 Z"/></g>
<g><path style="opacity:1" fill="#2b620c" d="M 650.5,200.5 C 650.5,200.833 650.5,201.167 650.5,201.5C 649.167,201.833 647.833,202.167 646.5,202.5C 647.287,200.896 648.62,200.229 650.5,200.5 Z"/></g>
<g><path style="opacity:1" fill="#9edf78" d="M 650.5,201.5 C 650.5,201.167 650.5,200.833 650.5,200.5C 652.857,200.337 655.19,200.503 657.5,201C 658.056,201.383 658.389,201.883 658.5,202.5C 655.904,201.735 653.237,201.401 650.5,201.5 Z"/></g>
<g><path style="opacity:1" fill="#090b07" d="M 650.5,201.5 C 653.06,202.385 655.06,204.051 656.5,206.5C 656.297,208.638 655.297,210.305 653.5,211.5C 654.711,212.874 655.711,214.374 656.5,216C 655.75,218.571 654.417,220.738 652.5,222.5C 652.167,222.5 651.833,222.5 651.5,222.5C 648.357,222.031 646.023,220.364 644.5,217.5C 643.64,213.566 643.307,209.566 643.5,205.5C 644.272,204.306 645.272,203.306 646.5,202.5C 647.833,202.167 649.167,201.833 650.5,201.5 Z"/></g>
<g><path style="opacity:1" fill="#f3f6f1" d="M 650.5,201.5 C 653.237,201.401 655.904,201.735 658.5,202.5C 659.5,203.833 660.5,205.167 661.5,206.5C 662.324,209.764 662.658,213.098 662.5,216.5C 660.472,222.009 656.805,224.009 651.5,222.5C 651.833,222.5 652.167,222.5 652.5,222.5C 657.844,220.149 658.844,216.482 655.5,211.5C 657.484,209.954 657.817,208.287 656.5,206.5C 655.06,204.051 653.06,202.385 650.5,201.5 Z"/></g>
<g><path style="opacity:1" fill="#7ecf96" d="M 432.5,203.5 C 437.788,204.475 443.121,204.809 448.5,204.5C 446.549,204.227 445.049,204.893 444,206.5C 439.799,205.233 435.632,205.233 431.5,206.5C 430.5,206.167 429.833,205.5 429.5,204.5C 430.472,204.407 431.472,204.074 432.5,203.5 Z"/></g>
<g><path style="opacity:1" fill="#b674aa" d="M 225.5,204.5 C 226.5,204.5 227.5,204.5 228.5,204.5C 228.778,206.346 228.111,207.68 226.5,208.5C 225.571,207.311 225.238,205.978 225.5,204.5 Z"/></g>
<g><path style="opacity:1" fill="#cbd2db" d="M 230.5,204.5 C 233.833,204.5 237.167,204.5 240.5,204.5C 240.523,207.121 239.189,208.455 236.5,208.5C 234.831,207.423 233.165,207.256 231.5,208C 230.663,206.989 230.33,205.822 230.5,204.5 Z"/></g>
<g><path style="opacity:1" fill="#babdc2" d="M 276.5,204.5 C 279.85,204.335 283.183,204.502 286.5,205C 286.957,205.414 287.291,205.914 287.5,206.5C 285.609,206.251 283.775,206.918 282,208.5C 279.075,208.471 277.242,207.138 276.5,204.5 Z"/></g>
<g><path style="opacity:1" fill="#fdfdfc" d="M 183.5,207.5 C 185.216,207.629 186.883,207.962 188.5,208.5C 190.64,211.061 192.973,213.395 195.5,215.5C 197.062,219.652 197.728,223.985 197.5,228.5C 196.456,231.165 195.289,233.832 194,236.5C 191.668,238.203 189.835,240.203 188.5,242.5C 182.153,243.788 175.82,243.788 169.5,242.5C 168.618,240.616 167.118,239.283 165,238.5C 164.153,236.807 163.32,235.14 162.5,233.5C 161.608,228.562 161.274,223.562 161.5,218.5C 164.506,210.823 170.172,206.823 178.5,206.5C 178.833,206.5 179.167,206.5 179.5,206.5C 180.117,206.389 180.617,206.056 181,205.5C 181.417,206.756 182.25,207.423 183.5,207.5 Z"/></g>
<g><path style="opacity:1" fill="#797d87" d="M 470.5,208.5 C 471.5,208.5 472.5,208.5 473.5,208.5C 473.5,210.167 473.5,211.833 473.5,213.5C 470.151,213.127 469.151,211.46 470.5,208.5 Z"/></g>
<g><path style="opacity:1" fill="#76cc8e" d="M 333.5,215.5 C 331.974,214.895 330.974,213.729 330.5,212C 329.451,211.508 328.451,211.674 327.5,212.5C 326.702,212.043 326.369,211.376 326.5,210.5C 326.38,207.795 327.38,207.128 329.5,208.5C 332.547,209.875 333.88,212.208 333.5,215.5 Z"/></g>
<g><path style="opacity:1" fill="#a0d655" d="M 205.5,209.5 C 207.41,210.975 208.576,212.975 209,215.5C 209.499,220.489 209.666,225.489 209.5,230.5C 205.5,229.833 201.5,229.167 197.5,228.5C 197.728,223.985 197.062,219.652 195.5,215.5C 199.053,213.965 202.386,211.965 205.5,209.5 Z"/></g>
<g><path style="opacity:1" fill="#8d9099" d="M 474.5,208.5 C 477.167,208.5 479.833,208.5 482.5,208.5C 483.167,213.833 483.833,213.833 484.5,208.5C 487.833,208.5 491.167,208.5 494.5,208.5C 494.5,210.167 494.5,211.833 494.5,213.5C 487.754,214.379 481.087,214.212 474.5,213C 475.167,212.667 475.833,212.333 476.5,212C 475.027,211.29 474.36,210.124 474.5,208.5 Z"/></g>
<g><path style="opacity:1" fill="#b9bab9" d="M 656.5,206.5 C 657.817,208.287 657.484,209.954 655.5,211.5C 658.844,216.482 657.844,220.149 652.5,222.5C 654.417,220.738 655.75,218.571 656.5,216C 655.711,214.374 654.711,212.874 653.5,211.5C 655.297,210.305 656.297,208.638 656.5,206.5 Z"/></g>
<g><path style="opacity:1" fill="#7fd097" d="M 419.5,202.5 C 420.751,203.472 420.418,204.139 418.5,204.5C 415.551,205.302 412.551,205.636 409.5,205.5C 409.753,207.827 409.086,209.827 407.5,211.5C 404.59,211.914 401.923,212.914 399.5,214.5C 398.264,213.754 396.93,213.421 395.5,213.5C 396.207,211.866 397.373,210.532 399,209.5C 399.317,211.301 399.984,211.634 401,210.5C 401.202,208.744 401.702,207.078 402.5,205.5C 403.187,207.274 404.02,208.941 405,210.5C 407.359,207.116 409.192,203.45 410.5,199.5C 412.185,201.017 413.685,202.684 415,204.5C 416.415,202.681 417.915,202.015 419.5,202.5 Z"/></g>
<g><path style="opacity:1" fill="#e2f4e9" d="M 419.5,202.5 C 419.56,201.957 419.893,201.624 420.5,201.5C 421.705,202.577 422.372,203.91 422.5,205.5C 421.503,205.47 420.836,205.97 420.5,207C 420.878,208.635 421.544,210.135 422.5,211.5C 425.829,208.835 428.162,205.501 429.5,201.5C 430.778,201.782 431.778,202.449 432.5,203.5C 431.472,204.074 430.472,204.407 429.5,204.5C 429.833,205.5 430.5,206.167 431.5,206.5C 435.632,205.233 439.799,205.233 444,206.5C 445.049,204.893 446.549,204.227 448.5,204.5C 449.167,204.5 449.833,204.5 450.5,204.5C 451.5,204.5 452.5,204.5 453.5,204.5C 453.5,205.167 453.5,205.833 453.5,206.5C 452.691,208.292 452.191,210.292 452,212.5C 451.667,210.833 451.333,209.167 451,207.5C 451.253,215.335 451.086,223.002 450.5,230.5C 427.949,229.527 404.949,229.193 381.5,229.5C 381.598,231.553 380.931,233.22 379.5,234.5C 379.662,232.473 379.495,230.473 379,228.5C 378.802,230.382 378.302,232.048 377.5,233.5C 377.624,228.951 378.291,224.618 379.5,220.5C 380.077,222.652 381.244,222.985 383,221.5C 383.14,218.957 383.806,216.623 385,214.5C 385.939,217.015 387.439,217.682 389.5,216.5C 391.167,216.5 392.833,216.5 394.5,216.5C 392.958,217.163 391.291,217.83 389.5,218.5C 394.445,220.561 396.445,218.895 395.5,213.5C 396.93,213.421 398.264,213.754 399.5,214.5C 401.923,212.914 404.59,211.914 407.5,211.5C 409.086,209.827 409.753,207.827 409.5,205.5C 412.551,205.636 415.551,205.302 418.5,204.5C 420.418,204.139 420.751,203.472 419.5,202.5 Z"/></g>
<g><path style="opacity:1" fill="#c9eeb2" d="M 661.5,206.5 C 662.117,206.611 662.617,206.944 663,207.5C 663.805,210.696 663.638,213.696 662.5,216.5C 662.658,213.098 662.324,209.764 661.5,206.5 Z"/></g>
<g><path style="opacity:1" fill="#f3ab69" d="M 225.5,212.5 C 229.31,213.754 229.31,214.754 225.5,215.5C 225.5,214.5 225.5,213.5 225.5,212.5 Z"/></g>
<g><path style="opacity:1" fill="#8ad4a0" d="M 389.5,216.5 C 387.439,217.682 385.939,217.015 385,214.5C 383.806,216.623 383.14,218.957 383,221.5C 381.244,222.985 380.077,222.652 379.5,220.5C 380.802,216.59 382.802,212.923 385.5,209.5C 387.31,211.623 388.643,213.957 389.5,216.5 Z"/></g>
<g><path style="opacity:1" fill="#cdced2" d="M 276.5,211.5 C 279.988,211.795 283.654,211.795 287.5,211.5C 287.646,213.942 286.813,214.609 285,213.5C 284.517,214.448 284.351,215.448 284.5,216.5C 282.076,216.808 279.743,216.474 277.5,215.5C 276.754,214.264 276.421,212.93 276.5,211.5 Z"/></g>
<g><path style="opacity:1" fill="#2a5713" d="M 596.5,214.5 C 597.833,214.833 599.167,215.167 600.5,215.5C 600.5,215.833 600.5,216.167 600.5,216.5C 598.62,216.771 597.287,216.104 596.5,214.5 Z"/></g>
<g><path style="opacity:1" fill="#318202" d="M 643.5,205.5 C 643.307,209.566 643.64,213.566 644.5,217.5C 641.042,213.841 640.709,209.841 643.5,205.5 Z"/></g>
<g><path style="opacity:1" fill="#71c989" d="M 395.5,213.5 C 396.445,218.895 394.445,220.561 389.5,218.5C 391.291,217.83 392.958,217.163 394.5,216.5C 394.263,215.209 394.596,214.209 395.5,213.5 Z"/></g>
<g><path style="opacity:1" fill="#fced96" d="M 225.5,219.5 C 226.5,219.5 227.5,219.5 228.5,219.5C 228.778,221.346 228.111,222.68 226.5,223.5C 225.571,222.311 225.238,220.978 225.5,219.5 Z"/></g>
<g><path style="opacity:1" fill="#99dbb1" d="M 513.5,218.5 C 516.402,218.211 519.402,218.711 522.5,220C 524.158,220.725 524.658,221.892 524,223.5C 522.488,222.743 521.154,221.743 520,220.5C 518.513,221.253 518.346,222.086 519.5,223C 517.527,223.495 515.527,223.662 513.5,223.5C 513.5,221.833 513.5,220.167 513.5,218.5 Z"/></g>
<g><path style="opacity:1" fill="#c8d0d9" d="M 230.5,219.5 C 234.664,219.874 238.664,219.874 242.5,219.5C 242.778,221.346 242.111,222.68 240.5,223.5C 237.833,223.5 235.167,223.5 232.5,223.5C 230.889,222.68 230.222,221.346 230.5,219.5 Z"/></g>
<g><path style="opacity:1" fill="#b9bbc0" d="M 279.5,219.5 C 281.857,219.337 284.19,219.503 286.5,220C 286.957,220.414 287.291,220.914 287.5,221.5C 285.565,221.127 283.732,221.793 282,223.5C 279.98,222.968 279.147,221.635 279.5,219.5 Z"/></g>
<g><path style="opacity:1" fill="#c6ccd5" d="M 465.5,218.5 C 470.659,220.429 475.659,220.429 480.5,218.5C 483.5,219.833 486.5,219.833 489.5,218.5C 491.134,218.968 492.3,219.968 493,221.5C 493.595,217.918 494.929,217.584 497,220.5C 500.057,219.549 503.223,219.216 506.5,219.5C 506.5,220.833 506.5,222.167 506.5,223.5C 500.519,223.17 494.686,223.17 489,223.5C 487.019,223.371 485.353,222.704 484,221.5C 482.933,222.191 481.766,222.691 480.5,223C 475.511,223.499 470.511,223.666 465.5,223.5C 465.5,221.833 465.5,220.167 465.5,218.5 Z"/></g>
<g><path style="opacity:1" fill="#82d09a" d="M 509.5,219.5 C 511.048,219.821 511.715,220.821 511.5,222.5C 508.752,222.598 508.086,221.598 509.5,219.5 Z"/></g>
<g><path style="opacity:1" fill="#983888" d="M 147.5,219.5 C 147.833,219.5 148.167,219.5 148.5,219.5C 152.015,220.919 155.681,221.586 159.5,221.5C 159.337,223.857 159.503,226.19 160,228.5C 160.099,230.653 160.933,232.319 162.5,233.5C 163.32,235.14 164.153,236.807 165,238.5C 167.118,239.283 168.618,240.616 169.5,242.5C 166.498,245.161 164.498,248.495 163.5,252.5C 157.363,249.597 153.03,244.931 150.5,238.5C 148.316,232.396 147.316,226.063 147.5,219.5 Z"/></g>
<g><path style="opacity:1" fill="#e7f6ec" d="M 326.5,210.5 C 326.369,211.376 326.702,212.043 327.5,212.5C 328.451,211.674 329.451,211.508 330.5,212C 330.974,213.729 331.974,214.895 333.5,215.5C 340.072,217.087 346.739,218.087 353.5,218.5C 348.305,218.179 343.305,218.513 338.5,219.5C 345.652,220.487 352.985,221.32 360.5,222C 361.025,222.692 361.692,223.192 362.5,223.5C 363.833,222.167 365.167,222.167 366.5,223.5C 367.478,223.023 368.311,222.357 369,221.5C 369.847,223.193 370.68,224.86 371.5,226.5C 370.596,227.209 370.263,228.209 370.5,229.5C 356.255,229.176 342.088,229.51 328,230.5C 327.827,224.652 327.327,218.985 326.5,213.5C 325.167,212.5 325.167,211.5 326.5,210.5 Z"/></g>
<g><path style="opacity:1" fill="#6fc886" d="M 338.5,219.5 C 337.172,221.896 335.506,221.896 333.5,219.5C 335.095,218.566 336.761,218.566 338.5,219.5 Z"/></g>
<g><path style="opacity:1" fill="#e0c3db" d="M 147.5,219.5 C 147.316,226.063 148.316,232.396 150.5,238.5C 149.503,238.53 148.836,238.03 148.5,237C 146.651,231.083 146.318,225.25 147.5,219.5 Z"/></g>
<g><path style="opacity:1" fill="#e3c4db" d="M 161.5,218.5 C 161.274,223.562 161.608,228.562 162.5,233.5C 160.933,232.319 160.099,230.653 160,228.5C 159.503,226.19 159.337,223.857 159.5,221.5C 160.167,220.5 160.833,219.5 161.5,218.5 Z"/></g>
<g><path style="opacity:1" fill="#bfc1c6" d="M 279.5,226.5 C 282.167,226.5 284.833,226.5 287.5,226.5C 287.646,228.942 286.813,229.609 285,228.5C 283.599,230.192 281.766,230.859 279.5,230.5C 279.5,229.167 279.5,227.833 279.5,226.5 Z"/></g>
<g><path style="opacity:1" fill="#f7f9f6" d="M 616.5,225.5 C 621.514,226.419 626.514,227.419 631.5,228.5C 630.619,232.454 629.952,236.454 629.5,240.5C 628.883,240.611 628.383,240.944 628,241.5C 627.077,245.79 626.577,250.123 626.5,254.5C 625.167,254.5 623.833,254.5 622.5,254.5C 618.299,253.777 614.632,252.11 611.5,249.5C 613.126,242.526 614.46,235.36 615.5,228C 615.167,227.167 614.833,226.333 614.5,225.5C 611.779,232.929 610.112,240.596 609.5,248.5C 607.629,248.141 606.129,247.141 605,245.5C 599.763,240.226 597.763,233.892 599,226.5C 600.64,224.077 602.973,223.077 606,223.5C 609.723,223.701 613.223,224.367 616.5,225.5 Z"/></g>
<g><path style="opacity:1" fill="#70c144" d="M 616.5,225.5 C 621.021,225.502 625.521,225.836 630,226.5C 631.986,226.569 633.486,227.235 634.5,228.5C 633.5,228.5 632.5,228.5 631.5,228.5C 626.514,227.419 621.514,226.419 616.5,225.5 Z"/></g>
<g><path style="opacity:1" fill="#193f05" d="M 664.5,225.5 C 665.5,225.5 666.5,225.5 667.5,225.5C 667.5,226.5 667.5,227.5 667.5,228.5C 666.5,228.5 665.5,228.5 664.5,228.5C 664.5,227.5 664.5,226.5 664.5,225.5 Z"/></g>
<g><path style="opacity:1" fill="#addc6b" d="M 225.5,227.5 C 229.31,228.754 229.31,229.754 225.5,230.5C 225.5,229.5 225.5,228.5 225.5,227.5 Z"/></g>
<g><path style="opacity:1" fill="#fafbf9" d="M 634.5,228.5 C 639.744,228.882 644.744,229.882 649.5,231.5C 649.5,232.167 649.5,232.833 649.5,233.5C 647.837,235.438 647.171,237.772 647.5,240.5C 647.5,240.833 647.5,241.167 647.5,241.5C 646.105,245.591 645.438,249.924 645.5,254.5C 643.585,254.216 641.919,254.549 640.5,255.5C 636.629,255.815 632.962,255.482 629.5,254.5C 629.216,252.585 629.549,250.919 630.5,249.5C 632.138,244.752 633.138,239.752 633.5,234.5C 633.517,232.435 633.85,230.435 634.5,228.5 Z"/></g>
<g><path style="opacity:1" fill="#122303" d="M 676.5,228.5 C 677.675,228.281 678.675,228.614 679.5,229.5C 677.948,230.798 676.948,230.465 676.5,228.5 Z"/></g>
<g><path style="opacity:1" fill="#fae66b" d="M 197.5,228.5 C 201.5,229.167 205.5,229.833 209.5,230.5C 207.673,239.994 202.673,247.327 194.5,252.5C 192.863,248.882 190.863,245.549 188.5,242.5C 189.835,240.203 191.668,238.203 194,236.5C 195.289,233.832 196.456,231.165 197.5,228.5 Z"/></g>
<g><path style="opacity:1" fill="#f9fcf7" d="M 652.5,232.5 C 656.308,232.163 659.974,232.663 663.5,234C 665.444,236.153 665.944,238.653 665,241.5C 661.164,247.83 655.664,251.83 648.5,253.5C 648.993,251.194 649.326,248.861 649.5,246.5C 649.5,246.167 649.5,245.833 649.5,245.5C 651.138,241.436 652.138,237.103 652.5,232.5 Z"/></g>
<g><path style="opacity:1" fill="#f4fbf6" d="M 326.5,213.5 C 327.327,218.985 327.827,224.652 328,230.5C 342.088,229.51 356.255,229.176 370.5,229.5C 370.263,228.209 370.596,227.209 371.5,226.5C 371.335,229.518 371.502,232.518 372,235.5C 373.333,236.167 374.333,237.167 375,238.5C 376.859,237.421 378.359,236.088 379.5,234.5C 380.931,233.22 381.598,231.553 381.5,229.5C 404.949,229.193 427.949,229.527 450.5,230.5C 450.5,237.5 450.5,244.5 450.5,251.5C 449.733,250.828 449.066,249.995 448.5,249C 450.047,246.069 449.547,243.569 447,241.5C 443.024,241.314 439.024,241.981 435,243.5C 434.667,242.833 434.333,242.167 434,241.5C 405.576,242.545 377.243,242.545 349,241.5C 345.879,243.433 342.546,243.433 339,241.5C 336.26,241.761 333.594,241.761 331,241.5C 330,242.167 329,242.833 328,243.5C 326.669,233.55 326.169,223.55 326.5,213.5 Z"/></g>
<g><path style="opacity:1" fill="#89d5a3" d="M 338.5,219.5 C 343.305,218.513 348.305,218.179 353.5,218.5C 356.39,218.278 359.057,218.945 361.5,220.5C 363.482,219.03 365.148,219.364 366.5,221.5C 367.258,220.189 368.258,219.689 369.5,220C 372.589,223.874 374.256,228.374 374.5,233.5C 375.687,234.653 376.687,234.653 377.5,233.5C 378.302,232.048 378.802,230.382 379,228.5C 379.495,230.473 379.662,232.473 379.5,234.5C 378.359,236.088 376.859,237.421 375,238.5C 374.333,237.167 373.333,236.167 372,235.5C 371.502,232.518 371.335,229.518 371.5,226.5C 370.68,224.86 369.847,223.193 369,221.5C 368.311,222.357 367.478,223.023 366.5,223.5C 365.167,222.167 363.833,222.167 362.5,223.5C 361.692,223.192 361.025,222.692 360.5,222C 352.985,221.32 345.652,220.487 338.5,219.5 Z"/></g>
<g><path style="opacity:1" fill="#8cc6e8" d="M 225.5,234.5 C 226.5,234.5 227.5,234.5 228.5,234.5C 228.778,236.346 228.111,237.68 226.5,238.5C 225.571,237.311 225.238,235.978 225.5,234.5 Z"/></g>
<g><path style="opacity:1" fill="#b2b4ba" d="M 279.5,234.5 C 281.857,234.337 284.19,234.503 286.5,235C 286.957,235.414 287.291,235.914 287.5,236.5C 285.295,237.616 282.629,238.116 279.5,238C 278.316,236.855 278.316,235.688 279.5,234.5 Z"/></g>
<g><path style="opacity:1" fill="#313130" d="M 611.5,249.5 C 610.508,249.672 609.842,249.338 609.5,248.5C 610.112,240.596 611.779,232.929 614.5,225.5C 614.833,226.333 615.167,227.167 615.5,228C 614.46,235.36 613.126,242.526 611.5,249.5 Z"/></g>
<g><path style="opacity:1" fill="#e6e9e9" d="M 453.5,206.5 C 453.5,233.5 453.5,260.5 453.5,287.5C 449.956,287.72 446.622,287.72 443.5,287.5C 445.948,286.527 448.615,286.194 451.5,286.5C 451.5,279.5 451.5,272.5 451.5,265.5C 446.5,265.5 441.5,265.5 436.5,265.5C 436.5,264.167 436.5,262.833 436.5,261.5C 441.092,262.241 445.758,262.241 450.5,261.5C 449.785,258.093 449.785,254.76 450.5,251.5C 450.5,244.5 450.5,237.5 450.5,230.5C 451.086,223.002 451.253,215.335 451,207.5C 451.333,209.167 451.667,210.833 452,212.5C 452.191,210.292 452.691,208.292 453.5,206.5 Z"/></g>
<g><path style="opacity:1" fill="#1b1b1b" d="M 649.5,231.5 C 650.167,231.5 650.833,231.5 651.5,231.5C 650.74,236.15 650.074,240.817 649.5,245.5C 649.5,245.833 649.5,246.167 649.5,246.5C 648.778,246.918 648.278,247.584 648,248.5C 647.503,246.19 647.337,243.857 647.5,241.5C 647.5,241.167 647.5,240.833 647.5,240.5C 648.924,238.485 649.59,236.152 649.5,233.5C 649.5,232.833 649.5,232.167 649.5,231.5 Z"/></g>
<g><path style="opacity:1" fill="#939393" d="M 649.5,233.5 C 649.59,236.152 648.924,238.485 647.5,240.5C 647.171,237.772 647.837,235.438 649.5,233.5 Z"/></g>
<g><path style="opacity:1" fill="#262626" d="M 631.5,228.5 C 632.5,228.5 633.5,228.5 634.5,228.5C 633.85,230.435 633.517,232.435 633.5,234.5C 631.124,239.106 630.124,244.106 630.5,249.5C 629.549,250.919 629.216,252.585 629.5,254.5C 628.833,254.5 628.167,254.5 627.5,254.5C 627.95,249.798 628.617,245.132 629.5,240.5C 629.952,236.454 630.619,232.454 631.5,228.5 Z"/></g>
<g><path style="opacity:1" fill="#ababab" d="M 651.5,231.5 C 652.167,231.5 652.5,231.833 652.5,232.5C 652.138,237.103 651.138,241.436 649.5,245.5C 650.074,240.817 650.74,236.15 651.5,231.5 Z"/></g>
<g><path style="opacity:1" fill="#445099" d="M 225.5,242.5 C 228.674,242.952 229.007,243.952 226.5,245.5C 225.614,244.675 225.281,243.675 225.5,242.5 Z"/></g>
<g><path style="opacity:1" fill="#adadad" d="M 629.5,240.5 C 628.617,245.132 627.95,249.798 627.5,254.5C 627.167,254.5 626.833,254.5 626.5,254.5C 626.577,250.123 627.077,245.79 628,241.5C 628.383,240.944 628.883,240.611 629.5,240.5 Z"/></g>
<g><path style="opacity:1" fill="#f09e52" d="M 169.5,242.5 C 175.82,243.788 182.153,243.788 188.5,242.5C 190.863,245.549 192.863,248.882 194.5,252.5C 184.106,257.69 173.772,257.69 163.5,252.5C 164.498,248.495 166.498,245.161 169.5,242.5 Z"/></g>
<g><path style="opacity:1" fill="#cdd4dc" d="M 230.5,242.5 C 234.015,242.712 237.348,242.712 240.5,242.5C 241.833,243.833 241.833,245.167 240.5,246.5C 237.833,246.5 235.167,246.5 232.5,246.5C 230.889,245.68 230.222,244.346 230.5,242.5 Z"/></g>
<g><path style="opacity:1" fill="#f89f44" d="M 468.5,248.5 C 469.685,247.143 470.685,245.643 471.5,244C 471.387,242.72 470.72,241.887 469.5,241.5C 468.849,243.847 467.516,245.514 465.5,246.5C 465.615,239.104 468.448,237.77 474,242.5C 474.499,246.506 472.665,248.506 468.5,248.5 Z"/></g>
<g><path style="opacity:1" fill="#b4b9c1" d="M 476.5,242.5 C 482.03,242.959 487.696,243.126 493.5,243C 494.337,244.011 494.67,245.178 494.5,246.5C 488.5,246.5 482.5,246.5 476.5,246.5C 476.5,245.167 476.5,243.833 476.5,242.5 Z"/></g>
<g><path style="opacity:1" fill="#fcbf7e" d="M 468.5,248.5 C 467.29,248.068 466.29,247.401 465.5,246.5C 467.516,245.514 468.849,243.847 469.5,241.5C 470.72,241.887 471.387,242.72 471.5,244C 470.685,245.643 469.685,247.143 468.5,248.5 Z"/></g>
<g><path style="opacity:1" fill="#a6a6a6" d="M 633.5,234.5 C 633.138,239.752 632.138,244.752 630.5,249.5C 630.124,244.106 631.124,239.106 633.5,234.5 Z"/></g>
<g><path style="opacity:1" fill="#4e504d" d="M 647.5,241.5 C 647.337,243.857 647.503,246.19 648,248.5C 648.278,247.584 648.778,246.918 649.5,246.5C 649.326,248.861 648.993,251.194 648.5,253.5C 647.609,254.11 646.609,254.443 645.5,254.5C 645.438,249.924 646.105,245.591 647.5,241.5 Z"/></g>
<g><path style="opacity:1" fill="#c4ccd6" d="M 231.5,249.5 C 235.346,249.545 239.013,250.378 242.5,252C 239.11,252.246 235.777,252.746 232.5,253.5C 230.358,252.563 230.024,251.23 231.5,249.5 Z"/></g>
<g><path style="opacity:1" fill="#c6cacf" d="M 273.5,249.5 C 278.483,250.648 283.483,250.648 288.5,249.5C 288.5,250.833 288.5,252.167 288.5,253.5C 283.482,253.387 278.482,253.053 273.5,252.5C 273.5,251.5 273.5,250.5 273.5,249.5 Z"/></g>
<g><path style="opacity:1" fill="#bcc3cd" d="M 476.5,252.5 C 478.156,253.146 479.823,253.813 481.5,254.5C 485.137,254.48 488.47,254.147 491.5,253.5C 492.429,254.689 492.762,256.022 492.5,257.5C 487.156,257.666 481.823,257.499 476.5,257C 475.272,255.51 475.272,254.01 476.5,252.5 Z"/></g>
<g><path style="opacity:1" fill="#bcc3cd" d="M 465.5,252.5 C 468.455,253.159 471.455,253.492 474.5,253.5C 474.5,254.833 474.5,256.167 474.5,257.5C 471.5,257.5 468.5,257.5 465.5,257.5C 465.5,255.833 465.5,254.167 465.5,252.5 Z"/></g>
<g><path style="opacity:1" fill="#84d198" d="M 494.5,253.5 C 495.5,253.5 496.5,253.5 497.5,253.5C 497.5,254.5 497.5,255.5 497.5,256.5C 496.5,256.5 495.5,256.5 494.5,256.5C 494.5,255.5 494.5,254.5 494.5,253.5 Z"/></g>
<g><path style="opacity:1" fill="#93d9ab" d="M 499.5,252.5 C 502.516,253.059 505.516,253.725 508.5,254.5C 509.583,255.365 509.749,256.365 509,257.5C 507.686,256.687 506.519,255.687 505.5,254.5C 504.833,255.5 504.167,256.5 503.5,257.5C 502.28,256.289 501.113,256.289 500,257.5C 499.506,255.866 499.34,254.199 499.5,252.5 Z"/></g>
<g><path style="opacity:1" fill="#82cd57" d="M 622.5,254.5 C 623.833,254.5 625.167,254.5 626.5,254.5C 626.833,254.5 627.167,254.5 627.5,254.5C 628.167,254.5 628.833,254.5 629.5,254.5C 632.962,255.482 636.629,255.815 640.5,255.5C 638.359,256.163 636.025,256.497 633.5,256.5C 629.553,256.637 625.886,255.97 622.5,254.5 Z"/></g>
<g><path style="opacity:1" fill="#69b24f" d="M 587.5,183.5 C 587.167,205.177 587.5,226.844 588.5,248.5C 589.478,248.977 590.311,249.643 591,250.5C 591.905,254.819 592.238,259.152 592,263.5C 588.122,265.58 586.622,268.913 587.5,273.5C 586.167,243.5 586.167,213.5 587.5,183.5 Z"/></g>
<g><path style="opacity:1" fill="#45b808" d="M 587.5,251.5 C 589.743,252.505 590.076,254.005 588.5,256C 589.394,257.396 590.061,258.896 590.5,260.5C 590.547,262 589.881,263 588.5,263.5C 587.509,259.555 587.176,255.555 587.5,251.5 Z"/></g>
<g><path style="opacity:1" fill="#c7eeaf" d="M 643.5,260.5 C 641.485,261.924 639.152,262.59 636.5,262.5C 638.515,261.076 640.848,260.41 643.5,260.5 Z"/></g>
<g><path style="opacity:1" fill="#c1eca8" d="M 626.5,264.5 C 624.485,265.924 622.152,266.59 619.5,266.5C 621.515,265.076 623.848,264.41 626.5,264.5 Z"/></g>
<g><path style="opacity:1" fill="#c2c4c9" d="M 475.5,274.5 C 475.389,273.883 475.056,273.383 474.5,273C 472.833,272.833 471.167,272.667 469.5,272.5C 467.36,272.556 465.694,273.223 464.5,274.5C 463.833,274.167 463.167,273.833 462.5,273.5C 461.833,272.833 461.167,272.167 460.5,271.5C 465.762,271.195 470.928,271.529 476,272.5C 478.47,270.513 481.303,270.013 484.5,271C 485.337,272.011 485.67,273.178 485.5,274.5C 482.921,274.917 480.754,274.25 479,272.5C 478.665,275.19 477.499,275.857 475.5,274.5 Z"/></g>
<g><path style="opacity:1" fill="#80848e" d="M 460.5,271.5 C 461.167,272.167 461.833,272.833 462.5,273.5C 461.905,276.113 461.071,276.113 460,273.5C 458.989,274.337 457.822,274.67 456.5,274.5C 456.5,273.5 456.5,272.5 456.5,271.5C 457.833,271.5 459.167,271.5 460.5,271.5 Z"/></g>
<g><path style="opacity:1" fill="#858992" d="M 475.5,274.5 C 471.833,274.5 468.167,274.5 464.5,274.5C 465.694,273.223 467.36,272.556 469.5,272.5C 471.167,272.667 472.833,272.833 474.5,273C 475.056,273.383 475.389,273.883 475.5,274.5 Z"/></g>
<g><path style="opacity:1" fill="#8c919b" d="M 557.5,270.5 C 557.596,272.119 557.596,273.785 557.5,275.5C 552.312,273.709 552.312,272.043 557.5,270.5 Z"/></g>
<g><path style="opacity:1" fill="#d7f3c5" d="M 650.5,277.5 C 653.231,283.642 651.231,286.309 644.5,285.5C 646.218,284.776 648.052,284.109 650,283.5C 650.495,281.527 650.662,279.527 650.5,277.5 Z"/></g>
<g><path style="opacity:1" fill="#a0a3aa" d="M 254.5,287.5 C 266.325,289.042 266.325,290.042 254.5,290.5C 254.5,289.5 254.5,288.5 254.5,287.5 Z"/></g>
<g><path style="opacity:1" fill="#8a8e97" d="M 276.5,287.5 C 278.331,288.052 279.997,288.052 281.5,287.5C 283.942,289.045 283.442,289.711 280,289.5C 278.319,289.392 277.152,288.725 276.5,287.5 Z"/></g>
<g><path style="opacity:1" fill="#80848e" d="M 349.5,287.5 C 353.787,287.538 357.787,287.871 361.5,288.5C 359.5,288.833 357.5,289.167 355.5,289.5C 353.048,289.461 351.048,288.794 349.5,287.5 Z"/></g>
<g><path style="opacity:1" fill="#868a93" d="M 443.5,287.5 C 446.622,287.72 449.956,287.72 453.5,287.5C 452.306,288.777 450.64,289.444 448.5,289.5C 446.36,289.444 444.694,288.777 443.5,287.5 Z"/></g>
<g><path style="opacity:1" fill="#747984" d="M 474.5,288.5 C 476.465,288.948 476.798,289.948 475.5,291.5C 474.614,290.675 474.281,289.675 474.5,288.5 Z"/></g>
<g><path style="opacity:1" fill="#acaeb5" d="M 131.5,287.5 C 135.167,287.5 138.833,287.5 142.5,287.5C 142.5,288.5 142.5,289.5 142.5,290.5C 139.15,290.665 135.817,290.498 132.5,290C 131.748,289.329 131.414,288.496 131.5,287.5 Z"/></g>
<g><path style="opacity:1" fill="#b4b7bd" d="M 293.5,286.5 C 296.572,286.183 299.572,286.516 302.5,287.5C 302.833,288.167 303.167,288.833 303.5,289.5C 300.296,290.204 297.129,290.87 294,291.5C 292.212,289.977 292.045,288.31 293.5,286.5 Z"/></g>
<g><path style="opacity:1" fill="#979aa2" d="M 363.5,287.5 C 365.46,288.138 367.293,288.138 369,287.5C 371,288.833 371,290.167 369,291.5C 367.54,289.578 365.873,288.911 364,289.5C 363.536,288.906 363.369,288.239 363.5,287.5 Z"/></g>
<g><path style="opacity:1" fill="#90939c" d="M 488.5,288.5 C 492.5,288.5 496.5,288.5 500.5,288.5C 500.5,289.5 500.5,290.5 500.5,291.5C 496.5,291.5 492.5,291.5 488.5,291.5C 488.5,290.5 488.5,289.5 488.5,288.5 Z"/></g>
<g><path style="opacity:1" fill="#c4c6cb" d="M 399.5,287.5 C 427.426,288.804 427.426,290.137 399.5,291.5C 399.5,290.167 399.5,288.833 399.5,287.5 Z"/></g>
<g><path style="opacity:1" fill="#a6a9b0" d="M 561.5,288.5 C 565.664,288.874 569.664,288.874 573.5,288.5C 573.5,289.5 573.5,290.5 573.5,291.5C 569.653,292.02 565.653,292.02 561.5,291.5C 561.5,290.5 561.5,289.5 561.5,288.5 Z"/></g>
<g><path style="opacity:1" fill="#a6e0ba" d="M 389.5,309.5 C 390.244,312.95 388.91,314.616 385.5,314.5C 383.922,309.723 383.089,304.723 383,299.5C 381.924,302.36 381.091,305.36 380.5,308.5C 379.345,305.554 379.179,302.554 380,299.5C 381.356,298.62 382.856,298.286 384.5,298.5C 383.977,303.222 384.977,307.555 387.5,311.5C 388.182,310.757 388.849,310.091 389.5,309.5 Z"/></g>
<g><path style="opacity:1" fill="#f8a044" d="M 133.5,302.5 C 137.648,302.834 139.315,305.167 138.5,309.5C 131.544,310.513 129.877,308.179 133.5,302.5 Z"/></g>
<g><path style="opacity:1" fill="#fcd5a8" d="M 134.5,304.5 C 136.176,305.183 136.843,306.517 136.5,308.5C 135.325,308.719 134.325,308.386 133.5,307.5C 134.127,306.583 134.461,305.583 134.5,304.5 Z"/></g>
<g><path style="opacity:1" fill="#a5dfb9" d="M 389.5,309.5 C 389.286,307.856 389.62,306.356 390.5,305C 395.069,305.018 399.403,304.185 403.5,302.5C 404.665,303.491 405.832,304.491 407,305.5C 410.343,305.77 413.343,306.77 416,308.5C 417.833,308.333 419.667,308.167 421.5,308C 420.4,309.023 419.067,309.523 417.5,309.5C 414.174,308.953 410.84,308.453 407.5,308C 405.939,307.682 404.772,306.849 404,305.5C 401.602,306.919 399.102,308.253 396.5,309.5C 395.278,307.022 393.278,306.022 390.5,306.5C 390.737,307.791 390.404,308.791 389.5,309.5 Z"/></g>
<g><path style="opacity:1" fill="#e4f7d9" d="M 223.5,308.5 C 222.5,308.5 221.5,308.5 220.5,308.5C 220.5,307.5 220.5,306.5 220.5,305.5C 218.738,305.643 217.071,305.309 215.5,304.5C 214.013,309.657 213.347,309.324 213.5,303.5C 216.304,302.362 219.304,302.195 222.5,303C 224.553,304.678 224.887,306.511 223.5,308.5 Z"/></g>
<g><path style="opacity:1" fill="#ffc5c2" d="M 268.5,304.5 C 273.5,304.5 278.5,304.5 283.5,304.5C 283.719,308.527 282.552,309.194 280,306.5C 278.991,307.658 277.658,308.325 276,308.5C 273.502,308.083 271.002,307.749 268.5,307.5C 268.5,306.5 268.5,305.5 268.5,304.5 Z"/></g>
<g><path style="opacity:1" fill="#b2b5bb" d="M 354.5,304.5 C 359.5,304.5 364.5,304.5 369.5,304.5C 369.5,305.833 369.5,307.167 369.5,308.5C 366.269,307.819 362.936,307.652 359.5,308C 360.621,305.077 360.287,304.911 358.5,307.5C 357.311,308.429 355.978,308.762 354.5,308.5C 354.5,307.167 354.5,305.833 354.5,304.5 Z"/></g>
<g><path style="opacity:1" fill="#b5b8bd" d="M 141.5,304.5 C 146.066,305.184 150.733,305.351 155.5,305C 156.337,306.011 156.67,307.178 156.5,308.5C 151.5,308.5 146.5,308.5 141.5,308.5C 141.5,307.167 141.5,305.833 141.5,304.5 Z"/></g>
<g><path style="opacity:1" fill="#83d099" d="M 289.5,305.5 C 291.337,305.639 291.67,306.306 290.5,307.5C 289.702,307.043 289.369,306.376 289.5,305.5 Z"/></g>
<g><path style="opacity:1" fill="#6dc886" d="M 307.5,305.5 C 309.337,305.639 309.67,306.306 308.5,307.5C 307.702,307.043 307.369,306.376 307.5,305.5 Z"/></g>
<g><path style="opacity:1" fill="#a7a9b0" d="M 510.5,305.5 C 512.527,305.338 514.527,305.505 516.5,306C 517.337,307.011 517.67,308.178 517.5,309.5C 514.753,309.813 512.086,309.48 509.5,308.5C 510.127,307.583 510.461,306.583 510.5,305.5 Z"/></g>
<g><path style="opacity:1" fill="#b0b2b9" d="M 239.5,304.5 C 245.015,304.621 250.348,304.621 255.5,304.5C 256.833,305.833 256.833,307.167 255.5,308.5C 250.348,308.379 245.015,308.379 239.5,308.5C 239.5,307.167 239.5,305.833 239.5,304.5 Z"/></g>
<g><path style="opacity:1" fill="#b8e6c8" d="M 293.5,304.5 C 296.833,304.5 300.167,304.5 303.5,304.5C 303.5,305.833 303.5,307.167 303.5,308.5C 300.167,308.5 296.833,308.5 293.5,308.5C 293.5,307.167 293.5,305.833 293.5,304.5 Z"/></g>
<g><path style="opacity:1" fill="#b1e4c4" d="M 311.5,304.5 C 315.5,304.5 319.5,304.5 323.5,304.5C 323.762,305.978 323.429,307.311 322.5,308.5C 319.273,308.345 315.94,308.178 312.5,308C 311.663,306.989 311.33,305.822 311.5,304.5 Z"/></g>
<g><path style="opacity:1" fill="#b2b5bb" d="M 332.5,304.5 C 335.935,305.224 339.269,305.39 342.5,305C 343.874,308.41 344.541,308.243 344.5,304.5C 347.372,304.804 350.039,304.971 352.5,305C 353.821,306.545 353.488,307.711 351.5,308.5C 347.086,308.714 342.586,308.381 338,307.5C 336.556,309.155 334.722,309.822 332.5,309.5C 332.5,307.833 332.5,306.167 332.5,304.5 Z"/></g>
<g><path style="opacity:1" fill="#999da4" d="M 500.5,306.5 C 503.062,307.371 505.728,307.371 508.5,306.5C 508.5,307.5 508.5,308.5 508.5,309.5C 505.833,309.5 503.167,309.5 500.5,309.5C 500.5,308.5 500.5,307.5 500.5,306.5 Z"/></g>
<g><path style="opacity:1" fill="#c9efb2" d="M 213.5,303.5 C 213.347,309.324 214.013,309.657 215.5,304.5C 217.071,305.309 218.738,305.643 220.5,305.5C 220.5,306.5 220.5,307.5 220.5,308.5C 221.5,308.5 222.5,308.5 223.5,308.5C 220.024,309.643 216.358,309.81 212.5,309C 210.922,306.661 211.255,304.828 213.5,303.5 Z"/></g>
<g><path style="opacity:1" fill="#cdd2d9" d="M 433.5,308.5 C 437.167,308.5 440.833,308.5 444.5,308.5C 444.5,309.5 444.5,310.5 444.5,311.5C 440.881,312.244 437.215,312.577 433.5,312.5C 433.5,311.167 433.5,309.833 433.5,308.5 Z"/></g>
<g><path style="opacity:1" fill="#f89733" d="M 490.5,305.5 C 495.718,306.222 497.385,309.055 495.5,314C 488.413,314.558 486.746,311.724 490.5,305.5 Z"/></g>
<g><path style="opacity:1" fill="#fcd09e" d="M 491.5,308.5 C 492.5,308.5 493.5,308.5 494.5,308.5C 494.884,310.665 494.217,312.332 492.5,313.5C 490.246,312.286 489.913,310.619 491.5,308.5 Z"/></g>
<g><path style="opacity:1" fill="#abaeb4" d="M 545.5,308.5 C 548.346,309.095 551.346,309.095 554.5,308.5C 554.67,309.822 554.337,310.989 553.5,312C 550.854,312.497 548.187,312.664 545.5,312.5C 545.5,311.167 545.5,309.833 545.5,308.5 Z"/></g>
<g><path style="opacity:1" fill="#adafb6" d="M 555.5,308.5 C 561.176,308.334 566.843,308.501 572.5,309C 573.833,310 573.833,311 572.5,312C 566.843,312.499 561.176,312.666 555.5,312.5C 555.5,311.167 555.5,309.833 555.5,308.5 Z"/></g>
<g><path style="opacity:1" fill="#d7d8db" d="M 453.5,323.5 C 452.833,323.5 452.167,323.5 451.5,323.5C 451.5,319.833 451.5,316.167 451.5,312.5C 447.44,313.152 445.44,311.485 445.5,307.5C 447.429,307.769 449.095,307.269 450.5,306C 445.845,305.501 441.179,305.334 436.5,305.5C 436.579,304.07 436.246,302.736 435.5,301.5C 441.379,301.414 447.379,301.081 453.5,300.5C 453.5,308.167 453.5,315.833 453.5,323.5 Z"/></g>
<g><path style="opacity:1" fill="#ffb7b4" d="M 380.5,320.5 C 381.833,320.5 383.167,320.5 384.5,320.5C 384.5,323.833 384.5,327.167 384.5,330.5C 385.5,330.5 386.5,330.5 387.5,330.5C 387.5,331.5 387.5,332.5 387.5,333.5C 386.167,333.5 384.833,333.5 383.5,333.5C 383.665,329.818 383.499,326.152 383,322.5C 381.187,323.609 380.354,322.942 380.5,320.5 Z"/></g>
<g><path style="opacity:1" fill="#ffc3c1" d="M 390.5,328.5 C 394.613,327.068 398.946,325.734 403.5,324.5C 404.491,326.323 405.824,327.823 407.5,329C 412.904,329.972 417.904,330.472 422.5,330.5C 421.148,331.896 419.481,332.563 417.5,332.5C 413.154,331.832 408.82,331.165 404.5,330.5C 404.649,329.448 404.483,328.448 404,327.5C 403.775,331.47 402.441,332.137 400,329.5C 398.416,329.988 397.249,330.988 396.5,332.5C 395.614,331.675 395.281,330.675 395.5,329.5C 393.784,329.371 392.117,329.038 390.5,328.5 Z"/></g>
<g><path style="opacity:1" fill="#979aa2" d="M 436.5,323.5 C 437.586,323.62 438.253,324.287 438.5,325.5C 438.167,326.167 437.833,326.833 437.5,327.5C 436.571,326.311 436.238,324.978 436.5,323.5 Z"/></g>
<g><path style="opacity:1" fill="#b0b2b8" d="M 451.5,323.5 C 452.167,323.5 452.833,323.5 453.5,323.5C 453.5,324.833 453.5,326.167 453.5,327.5C 452.167,327.5 450.833,327.5 449.5,327.5C 449.167,323.5 448.833,323.5 448.5,327.5C 445.5,327.5 442.5,327.5 439.5,327.5C 439.5,326.167 439.5,324.833 439.5,323.5C 441.766,323.141 443.599,323.808 445,325.5C 446.754,323.75 448.921,323.083 451.5,323.5 Z"/></g>
<g><path style="opacity:1" fill="#9fdeb5" d="M 293.5,327.5 C 294.75,327.577 295.583,328.244 296,329.5C 298.643,326.818 301.143,326.984 303.5,330C 301.892,330.658 300.725,330.158 300,328.5C 298.312,330.045 296.312,331.045 294,331.5C 293.51,330.207 293.343,328.873 293.5,327.5 Z"/></g>
<g><path style="opacity:1" fill="#9ca0a7" d="M 144.5,327.5 C 167.001,329.205 167.001,330.205 144.5,330.5C 144.5,329.5 144.5,328.5 144.5,327.5 Z"/></g>
<g><path style="opacity:1" fill="#676767" d="M 134.5,326.5 C 138.343,327.931 138.509,329.931 135,332.5C 133.388,330.544 133.222,328.544 134.5,326.5 Z"/></g>
<g><path style="opacity:1" fill="#bbbec3" d="M 249.5,326.5 C 254.167,326.5 258.833,326.5 263.5,326.5C 263.5,328.167 263.5,329.833 263.5,331.5C 256.641,330.868 249.641,330.868 242.5,331.5C 242.5,330.167 242.5,328.833 242.5,327.5C 245.059,327.802 247.393,327.468 249.5,326.5 Z"/></g>
<g><path style="opacity:1" fill="#ffd0cd" d="M 272.5,327.5 C 274.124,327.36 275.29,328.027 276,329.5C 278.888,326.738 281.388,327.071 283.5,330.5C 278.667,331.969 274,331.636 269.5,329.5C 270.602,328.824 271.602,328.158 272.5,327.5 Z"/></g>
<g><path style="opacity:1" fill="#c4ead1" d="M 311.5,326.5 C 315.5,326.5 319.5,326.5 323.5,326.5C 323.5,328.167 323.5,329.833 323.5,331.5C 319.5,331.5 315.5,331.5 311.5,331.5C 311.5,329.833 311.5,328.167 311.5,326.5 Z"/></g>
<g><path style="opacity:1" fill="#babcc2" d="M 331.5,326.5 C 340.785,326.251 349.951,326.918 359,328.5C 362.494,326.623 366.327,325.956 370.5,326.5C 370.714,328.144 370.38,329.644 369.5,331C 358.977,331.123 348.31,331.29 337.5,331.5C 336.004,327.665 335.004,327.665 334.5,331.5C 333.5,331.5 332.5,331.5 331.5,331.5C 331.5,329.833 331.5,328.167 331.5,326.5 Z"/></g>
<g><path style="opacity:1" fill="#ffb4b2" d="M 379.5,324.5 C 380.629,326.628 380.796,328.961 380,331.5C 377.822,334.468 376.656,334.135 376.5,330.5C 377.5,330.5 378.5,330.5 379.5,330.5C 379.5,328.5 379.5,326.5 379.5,324.5 Z"/></g>
<g><path style="opacity:1" fill="#d6f3c5" d="M 213.5,324.5 C 216.518,324.335 219.518,324.502 222.5,325C 224.187,326.913 224.687,329.08 224,331.5C 220.256,332.626 216.423,332.793 212.5,332C 211.083,329.257 211.416,326.757 213.5,324.5 Z"/></g>
<g><path style="opacity:1" fill="#ffb4b0" d="M 390.5,328.5 C 390.425,331.206 390.092,333.873 389.5,336.5C 388.325,336.719 387.325,336.386 386.5,335.5C 388.219,333.291 389.553,330.957 390.5,328.5 Z"/></g>
<g><path style="opacity:1" fill="#858993" d="M 503.5,332.5 C 507.785,333.295 512.119,333.628 516.5,333.5C 516.53,334.497 516.03,335.164 515,335.5C 511.273,335.182 507.44,335.182 503.5,335.5C 503.5,334.5 503.5,333.5 503.5,332.5 Z"/></g>
<g><path style="opacity:1" fill="#b4b7bc" d="M 503.5,332.5 C 503.5,333.5 503.5,334.5 503.5,335.5C 507.44,335.182 511.273,335.182 515,335.5C 516.03,335.164 516.53,334.497 516.5,333.5C 519.167,333.5 521.833,333.5 524.5,333.5C 524.5,334.5 524.5,335.5 524.5,336.5C 516.167,336.5 507.833,336.5 499.5,336.5C 499.5,335.167 499.5,333.833 499.5,332.5C 500.833,332.5 502.167,332.5 503.5,332.5 Z"/></g>
<g><path style="opacity:1" fill="#e5e6e7" d="M 453.5,339.5 C 337.332,339.833 221.332,339.5 105.5,338.5C 220.167,338.667 334.834,338.5 449.5,338C 450.833,337.333 450.833,336.667 449.5,336C 445.459,335.827 441.459,335.327 437.5,334.5C 438.833,333.5 438.833,332.5 437.5,331.5C 439.396,330.534 441.396,330.201 443.5,330.5C 443.351,331.552 443.517,332.552 444,333.5C 446.792,331.606 449.959,330.606 453.5,330.5C 453.5,333.5 453.5,336.5 453.5,339.5 Z"/></g>
<g><path style="opacity:1" fill="#b6b8be" d="M 549.5,334.5 C 551.167,334.5 552.833,334.5 554.5,334.5C 554.238,335.978 554.571,337.311 555.5,338.5C 556.148,336.851 557.148,335.518 558.5,334.5C 563.396,335.021 568.396,335.021 573.5,334.5C 573.5,335.833 573.5,337.167 573.5,338.5C 565.501,339.486 557.501,339.82 549.5,339.5C 549.5,337.833 549.5,336.167 549.5,334.5 Z"/></g>
<g><path style="opacity:1" fill="#5d5d5d" d="M 491.5,333.5 C 492.496,333.414 493.329,333.748 494,334.5C 494.752,340.967 493.585,341.633 490.5,336.5C 491.127,335.583 491.461,334.583 491.5,333.5 Z"/></g>
<g><path style="opacity:1" fill="#cacaca" d="M 100.5,336.5 C 101.82,337.942 103.486,338.608 105.5,338.5C 221.332,339.5 337.332,339.833 453.5,339.5C 453.5,340.833 453.5,342.167 453.5,343.5C 452.85,343.804 452.183,344.137 451.5,344.5C 336.873,343.669 222.207,343.169 107.5,343C 103.71,342.214 100.71,340.214 98.5,337C 99.0944,336.536 99.7611,336.369 100.5,336.5 Z"/></g>
<g><path style="opacity:1" fill="#e2e3e2" d="M 95.5,329.5 C 96.7536,332.093 98.4202,334.427 100.5,336.5C 99.7611,336.369 99.0944,336.536 98.5,337C 100.71,340.214 103.71,342.214 107.5,343C 222.207,343.169 336.873,343.669 451.5,344.5C 452.183,344.137 452.85,343.804 453.5,343.5C 453.334,349.842 453.5,356.175 454,362.5C 454.533,365.505 455.7,368.172 457.5,370.5C 456.427,371.251 456.26,372.251 457,373.5C 459.342,376.754 462.509,378.588 466.5,379C 502.167,379.667 537.833,379.667 573.5,379C 577.702,378.737 580.702,376.737 582.5,373C 581.552,372.517 580.552,372.351 579.5,372.5C 587.369,366.34 589.703,358.34 586.5,348.5C 588.95,348.702 591.283,348.369 593.5,347.5C 592.448,349.256 590.781,349.923 588.5,349.5C 588.666,356.508 588.5,363.508 588,370.5C 585.28,375.551 581.113,378.718 575.5,380C 538.5,380.667 501.5,380.667 464.5,380C 462.833,379.667 461.167,379.333 459.5,379C 456.283,376.284 453.616,373.117 451.5,369.5C 451.8,361.777 451.467,354.11 450.5,346.5C 335.501,345.667 220.501,345.167 105.5,345C 97.3917,342.57 94.0584,337.403 95.5,329.5 Z"/></g>
<g><path style="opacity:1" fill="#f1f1f1" d="M 95.5,329.5 C 94.0584,337.403 97.3917,342.57 105.5,345C 220.501,345.167 335.501,345.667 450.5,346.5C 451.467,354.11 451.8,361.777 451.5,369.5C 450.582,362.105 449.915,354.771 449.5,347.5C 335.5,347.667 221.5,347.5 107.5,347C 99.8454,345.345 94.6787,340.845 92,333.5C 91.1667,248.498 91.3333,163.498 92.5,78.5C 93.086,78.2907 93.586,77.9574 94,77.5C 94.1748,161.528 94.6748,245.528 95.5,329.5 Z"/></g>
<g><path style="opacity:1" fill="#a4a8af" d="M 500.5,358.5 C 505.453,359.329 510.453,359.663 515.5,359.5C 515.5,360.5 515.5,361.5 515.5,362.5C 510.339,363.515 505.339,363.515 500.5,362.5C 500.5,361.167 500.5,359.833 500.5,358.5 Z"/></g>
<g><path style="opacity:1" fill="#b4b7bc" d="M 546.5,360.5 C 547.75,360.577 548.583,361.244 549,362.5C 550.113,361.289 551.28,361.289 552.5,362.5C 553.478,362.023 554.311,361.357 555,360.5C 557.132,361.78 559.298,361.78 561.5,360.5C 564.658,360.826 567.492,361.826 570,363.5C 570.71,362.027 571.876,361.36 573.5,361.5C 573.657,362.873 573.49,364.207 573,365.5C 571.467,365.944 569.967,366.277 568.5,366.5C 567.522,366.023 566.689,365.357 566,364.5C 562.948,365.066 559.948,365.399 557,365.5C 555.289,365.561 553.956,364.894 553,363.5C 552.612,364.428 551.945,365.095 551,365.5C 549.765,364.385 548.598,364.385 547.5,365.5C 545.576,364.035 545.243,362.368 546.5,360.5 Z"/></g>
<g><path style="opacity:1" fill="#7ec3b0" d="M 489.5,359.5 C 491.5,359.5 493.5,359.5 495.5,359.5C 497.062,362.991 496.062,365.658 492.5,367.5C 489.105,365.609 488.105,362.942 489.5,359.5 Z"/></g>
<g><path style="opacity:1" fill="#cdcdcd" d="M 457.5,370.5 C 459.308,371.907 461.308,373.074 463.5,374C 501.167,374.667 538.833,374.667 576.5,374C 577.737,373.768 578.737,373.268 579.5,372.5C 580.552,372.351 581.552,372.517 582.5,373C 580.702,376.737 577.702,378.737 573.5,379C 537.833,379.667 502.167,379.667 466.5,379C 462.509,378.588 459.342,376.754 457,373.5C 456.26,372.251 456.427,371.251 457.5,370.5 Z"/></g>
</svg>
